<svg width="671" height="74" viewBox="0 0 671 74" fill="none" xmlns="http://www.w3.org/2000/svg">
<path fill-rule="evenodd" clip-rule="evenodd" d="M27.6667 14.5833C27.6667 12.3732 28.5446 10.2536 30.1074 8.69078C31.6702 7.12797 33.7899 6.25 36 6.25C38.2101 6.25 40.3298 7.12797 41.8926 8.69078C43.4554 10.2536 44.3333 12.3732 44.3333 14.5833C44.3333 16.7935 43.4554 18.9131 41.8926 20.4759C40.3298 22.0387 38.2101 22.9167 36 22.9167C33.7899 22.9167 31.6702 22.0387 30.1074 20.4759C28.5446 18.9131 27.6667 16.7935 27.6667 14.5833ZM27.6667 27.0833C24.904 27.0833 22.2545 28.1808 20.301 30.1343C18.3475 32.0878 17.25 34.7373 17.25 37.5C17.25 39.1576 17.9085 40.7473 19.0806 41.9194C20.2527 43.0915 21.8424 43.75 23.5 43.75H48.5C50.1576 43.75 51.7473 43.0915 52.9194 41.9194C54.0915 40.7473 54.75 39.1576 54.75 37.5C54.75 34.7373 53.6525 32.0878 51.699 30.1343C49.7455 28.1808 47.096 27.0833 44.3333 27.0833H27.6667Z" fill="#FAFAF8"/>
<path d="M1.2 70V59.2H2.7675V70H1.2ZM5.01973 70V59.2H8.40223C8.50223 59.2 8.68723 59.2025 8.95723 59.2075C9.23223 59.2125 9.49473 59.2325 9.74473 59.2675C10.5897 59.3725 11.2997 59.675 11.8747 60.175C12.4547 60.675 12.8922 61.31 13.1872 62.08C13.4822 62.845 13.6297 63.685 13.6297 64.6C13.6297 65.52 13.4822 66.365 13.1872 67.135C12.8922 67.9 12.4547 68.5325 11.8747 69.0325C11.2997 69.5275 10.5897 69.8275 9.74473 69.9325C9.49473 69.9675 9.23223 69.9875 8.95723 69.9925C8.68723 69.9975 8.50223 70 8.40223 70H5.01973ZM6.62473 68.5075H8.40223C8.57223 68.5075 8.77473 68.5025 9.00973 68.4925C9.24473 68.4825 9.45223 68.4625 9.63223 68.4325C10.1822 68.3275 10.6272 68.09 10.9672 67.72C11.3122 67.345 11.5647 66.885 11.7247 66.34C11.8847 65.795 11.9647 65.215 11.9647 64.6C11.9647 63.965 11.8822 63.3775 11.7172 62.8375C11.5522 62.2925 11.2972 61.8375 10.9522 61.4725C10.6122 61.1025 10.1722 60.8675 9.63223 60.7675C9.45223 60.7325 9.24223 60.7125 9.00223 60.7075C8.76723 60.6975 8.56723 60.6925 8.40223 60.6925H6.62473V68.5075ZM20.9141 70L17.4041 59.2H19.0316L22.0241 68.4175L25.0541 59.2H26.6816L23.1716 70H20.9141ZM30.5116 70.225C29.7066 70.225 28.9991 70.05 28.3891 69.7C27.7841 69.345 27.3116 68.8525 26.9716 68.2225C26.6366 67.5875 26.4691 66.8525 26.4691 66.0175C26.4691 65.1325 26.6341 64.365 26.9641 63.715C27.2991 63.065 27.7641 62.5625 28.3591 62.2075C28.9541 61.8525 29.6466 61.675 30.4366 61.675C31.2616 61.675 31.9641 61.8675 32.5441 62.2525C33.1241 62.6325 33.5566 63.175 33.8416 63.88C34.1316 64.585 34.2466 65.4225 34.1866 66.3925H32.6191V65.8225C32.6091 64.8825 32.4291 64.1875 32.0791 63.7375C31.7341 63.2875 31.2066 63.0625 30.4966 63.0625C29.7116 63.0625 29.1216 63.31 28.7266 63.805C28.3316 64.3 28.1341 65.015 28.1341 65.95C28.1341 66.84 28.3316 67.53 28.7266 68.02C29.1216 68.505 29.6916 68.7475 30.4366 68.7475C30.9266 68.7475 31.3491 68.6375 31.7041 68.4175C32.0641 68.1925 32.3441 67.8725 32.5441 67.4575L34.0816 67.945C33.7666 68.67 33.2891 69.2325 32.6491 69.6325C32.0091 70.0275 31.2966 70.225 30.5116 70.225ZM27.6241 66.3925V65.17H33.4066V66.3925H27.6241ZM35.8693 70V61.9H37.2643V63.865L37.0693 63.61C37.1693 63.35 37.2993 63.1125 37.4593 62.8975C37.6193 62.6775 37.8043 62.4975 38.0143 62.3575C38.2193 62.2075 38.4468 62.0925 38.6968 62.0125C38.9518 61.9275 39.2118 61.8775 39.4768 61.8625C39.7418 61.8425 39.9968 61.855 40.2418 61.9V63.37C39.9768 63.3 39.6818 63.28 39.3568 63.31C39.0368 63.34 38.7418 63.4425 38.4718 63.6175C38.2168 63.7825 38.0143 63.9825 37.8643 64.2175C37.7193 64.4525 37.6143 64.715 37.5493 65.005C37.4843 65.29 37.4518 65.5925 37.4518 65.9125V70H35.8693ZM41.8201 60.5725V59.05H43.3876V60.5725H41.8201ZM41.8201 70V61.9H43.3876V70H41.8201ZM46.3823 70V61.615C46.3823 61.41 46.3898 61.1925 46.4048 60.9625C46.4198 60.7275 46.4623 60.4975 46.5323 60.2725C46.6073 60.0425 46.7298 59.8325 46.8998 59.6425C47.1048 59.4175 47.3298 59.2575 47.5748 59.1625C47.8198 59.0675 48.0623 59.0125 48.3023 58.9975C48.5473 58.9825 48.7723 58.975 48.9773 58.975H49.9973V60.265H49.0523C48.6823 60.265 48.4048 60.3575 48.2198 60.5425C48.0398 60.7225 47.9498 60.98 47.9498 61.315V70H46.3823ZM45.0398 63.16V61.9H49.9973V63.16H45.0398ZM51.5723 60.5725V59.05H53.1398V60.5725H51.5723ZM51.5723 70V61.9H53.1398V70H51.5723ZM58.9882 70.225C58.1832 70.225 57.4757 70.05 56.8657 69.7C56.2607 69.345 55.7882 68.8525 55.4482 68.2225C55.1132 67.5875 54.9457 66.8525 54.9457 66.0175C54.9457 65.1325 55.1107 64.365 55.4407 63.715C55.7757 63.065 56.2407 62.5625 56.8357 62.2075C57.4307 61.8525 58.1232 61.675 58.9132 61.675C59.7382 61.675 60.4407 61.8675 61.0207 62.2525C61.6007 62.6325 62.0332 63.175 62.3182 63.88C62.6082 64.585 62.7232 65.4225 62.6632 66.3925H61.0957V65.8225C61.0857 64.8825 60.9057 64.1875 60.5557 63.7375C60.2107 63.2875 59.6832 63.0625 58.9732 63.0625C58.1882 63.0625 57.5982 63.31 57.2032 63.805C56.8082 64.3 56.6107 65.015 56.6107 65.95C56.6107 66.84 56.8082 67.53 57.2032 68.02C57.5982 68.505 58.1682 68.7475 58.9132 68.7475C59.4032 68.7475 59.8257 68.6375 60.1807 68.4175C60.5407 68.1925 60.8207 67.8725 61.0207 67.4575L62.5582 67.945C62.2432 68.67 61.7657 69.2325 61.1257 69.6325C60.4857 70.0275 59.7732 70.225 58.9882 70.225ZM56.1007 66.3925V65.17H61.8832V66.3925H56.1007ZM67.5634 70.225C66.8084 70.225 66.1559 70.0375 65.6059 69.6625C65.0609 69.2875 64.6384 68.7775 64.3384 68.1325C64.0434 67.4825 63.8959 66.7525 63.8959 65.9425C63.8959 65.1275 64.0459 64.4 64.3459 63.76C64.6459 63.115 65.0709 62.6075 65.6209 62.2375C66.1759 61.8625 66.8334 61.675 67.5934 61.675C68.3584 61.675 69.0009 61.8625 69.5209 62.2375C70.0459 62.6075 70.4409 63.115 70.7059 63.76C70.9759 64.405 71.1109 65.1325 71.1109 65.9425C71.1109 66.7525 70.9759 67.48 70.7059 68.125C70.4359 68.77 70.0384 69.2825 69.5134 69.6625C68.9884 70.0375 68.3384 70.225 67.5634 70.225ZM67.7809 68.8075C68.2959 68.8075 68.7159 68.685 69.0409 68.44C69.3659 68.195 69.6034 67.8575 69.7534 67.4275C69.9034 66.9975 69.9784 66.5025 69.9784 65.9425C69.9784 65.3825 69.9009 64.8875 69.7459 64.4575C69.5959 64.0275 69.3609 63.6925 69.0409 63.4525C68.7259 63.2125 68.3234 63.0925 67.8334 63.0925C67.3134 63.0925 66.8859 63.22 66.5509 63.475C66.2159 63.73 65.9659 64.0725 65.8009 64.5025C65.6409 64.9325 65.5609 65.4125 65.5609 65.9425C65.5609 66.4775 65.6409 66.9625 65.8009 67.3975C65.9659 67.8275 66.2109 68.17 66.5359 68.425C66.8659 68.68 67.2809 68.8075 67.7809 68.8075ZM69.9784 70V64.1725H69.7984V59.2H71.3734V70H69.9784Z" fill="#F4B942"/>
<path d="M108.471 66.897L109.281 7.10334" stroke="#FAFAF8" stroke-width="2" stroke-linecap="round" stroke-linejoin="round"/>
<path d="M145.802 66V55.2H150.167C150.272 55.2 150.402 55.205 150.557 55.215C150.712 55.22 150.86 55.235 151 55.26C151.6 55.355 152.1 55.56 152.5 55.875C152.905 56.19 153.207 56.5875 153.407 57.0675C153.607 57.5475 153.707 58.0775 153.707 58.6575C153.707 59.2425 153.607 59.775 153.407 60.255C153.207 60.735 152.905 61.1325 152.5 61.4475C152.1 61.7625 151.6 61.9675 151 62.0625C150.86 62.0825 150.71 62.0975 150.55 62.1075C150.395 62.1175 150.267 62.1225 150.167 62.1225H147.37V66H145.802ZM147.37 60.6375H150.107C150.207 60.6375 150.317 60.6325 150.437 60.6225C150.562 60.6125 150.68 60.595 150.79 60.57C151.11 60.495 151.367 60.3575 151.562 60.1575C151.757 59.9525 151.897 59.7175 151.982 59.4525C152.067 59.1875 152.11 58.9225 152.11 58.6575C152.11 58.3925 152.067 58.13 151.982 57.87C151.897 57.605 151.757 57.3725 151.562 57.1725C151.367 56.9675 151.11 56.8275 150.79 56.7525C150.68 56.7225 150.562 56.7025 150.437 56.6925C150.317 56.6825 150.207 56.6775 150.107 56.6775H147.37V60.6375ZM155.207 66V57.9H156.602V59.865L156.407 59.61C156.507 59.35 156.637 59.1125 156.797 58.8975C156.957 58.6775 157.142 58.4975 157.352 58.3575C157.557 58.2075 157.784 58.0925 158.034 58.0125C158.289 57.9275 158.549 57.8775 158.814 57.8625C159.079 57.8425 159.334 57.855 159.579 57.9V59.37C159.314 59.3 159.019 59.28 158.694 59.31C158.374 59.34 158.079 59.4425 157.809 59.6175C157.554 59.7825 157.352 59.9825 157.202 60.2175C157.057 60.4525 156.952 60.715 156.887 61.005C156.822 61.29 156.789 61.5925 156.789 61.9125V66H155.207ZM164.379 66.225C163.569 66.225 162.866 66.0425 162.271 65.6775C161.676 65.3125 161.216 64.81 160.891 64.17C160.571 63.525 160.411 62.7825 160.411 61.9425C160.411 61.0975 160.576 60.355 160.906 59.715C161.236 59.07 161.699 58.57 162.294 58.215C162.889 57.855 163.584 57.675 164.379 57.675C165.189 57.675 165.891 57.8575 166.486 58.2225C167.081 58.5875 167.541 59.09 167.866 59.73C168.191 60.37 168.354 61.1075 168.354 61.9425C168.354 62.7875 168.189 63.5325 167.859 64.1775C167.534 64.8175 167.074 65.32 166.479 65.685C165.884 66.045 165.184 66.225 164.379 66.225ZM164.379 64.7475C165.154 64.7475 165.731 64.4875 166.111 63.9675C166.496 63.4425 166.689 62.7675 166.689 61.9425C166.689 61.0975 166.494 60.4225 166.104 59.9175C165.719 59.4075 165.144 59.1525 164.379 59.1525C163.854 59.1525 163.421 59.2725 163.081 59.5125C162.741 59.7475 162.489 60.075 162.324 60.495C162.159 60.91 162.076 61.3925 162.076 61.9425C162.076 62.7925 162.271 63.4725 162.661 63.9825C163.051 64.4925 163.624 64.7475 164.379 64.7475ZM173.804 66.225C173.029 66.225 172.379 66.0375 171.854 65.6625C171.329 65.2825 170.932 64.77 170.662 64.125C170.392 63.48 170.257 62.7525 170.257 61.9425C170.257 61.1325 170.389 60.405 170.654 59.76C170.924 59.115 171.319 58.6075 171.839 58.2375C172.364 57.8625 173.009 57.675 173.774 57.675C174.534 57.675 175.189 57.8625 175.739 58.2375C176.294 58.6075 176.722 59.115 177.022 59.76C177.322 60.4 177.472 61.1275 177.472 61.9425C177.472 62.7525 177.322 63.4825 177.022 64.1325C176.727 64.7775 176.304 65.2875 175.754 65.6625C175.209 66.0375 174.559 66.225 173.804 66.225ZM169.994 69.6V57.9H171.389V63.7275H171.569V69.6H169.994ZM173.587 64.8075C174.087 64.8075 174.499 64.68 174.824 64.425C175.154 64.17 175.399 63.8275 175.559 63.3975C175.724 62.9625 175.807 62.4775 175.807 61.9425C175.807 61.4125 175.724 60.9325 175.559 60.5025C175.399 60.0725 175.152 59.73 174.817 59.475C174.482 59.22 174.054 59.0925 173.534 59.0925C173.044 59.0925 172.639 59.2125 172.319 59.4525C172.004 59.6925 171.769 60.0275 171.614 60.4575C171.464 60.8875 171.389 61.3825 171.389 61.9425C171.389 62.5025 171.464 62.9975 171.614 63.4275C171.764 63.8575 172.002 64.195 172.327 64.44C172.652 64.685 173.072 64.8075 173.587 64.8075ZM182.72 66.225C181.915 66.225 181.208 66.05 180.598 65.7C179.993 65.345 179.52 64.8525 179.18 64.2225C178.845 63.5875 178.678 62.8525 178.678 62.0175C178.678 61.1325 178.843 60.365 179.173 59.715C179.508 59.065 179.973 58.5625 180.568 58.2075C181.163 57.8525 181.855 57.675 182.645 57.675C183.47 57.675 184.173 57.8675 184.753 58.2525C185.333 58.6325 185.765 59.175 186.05 59.88C186.34 60.585 186.455 61.4225 186.395 62.3925H184.828V61.8225C184.818 60.8825 184.638 60.1875 184.288 59.7375C183.943 59.2875 183.415 59.0625 182.705 59.0625C181.92 59.0625 181.33 59.31 180.935 59.805C180.54 60.3 180.343 61.015 180.343 61.95C180.343 62.84 180.54 63.53 180.935 64.02C181.33 64.505 181.9 64.7475 182.645 64.7475C183.135 64.7475 183.558 64.6375 183.913 64.4175C184.273 64.1925 184.553 63.8725 184.753 63.4575L186.29 63.945C185.975 64.67 185.498 65.2325 184.858 65.6325C184.218 66.0275 183.505 66.225 182.72 66.225ZM179.833 62.3925V61.17H185.615V62.3925H179.833ZM188.078 66V57.9H189.473V59.865L189.278 59.61C189.378 59.35 189.508 59.1125 189.668 58.8975C189.828 58.6775 190.013 58.4975 190.223 58.3575C190.428 58.2075 190.655 58.0925 190.905 58.0125C191.16 57.9275 191.42 57.8775 191.685 57.8625C191.95 57.8425 192.205 57.855 192.45 57.9V59.37C192.185 59.3 191.89 59.28 191.565 59.31C191.245 59.34 190.95 59.4425 190.68 59.6175C190.425 59.7825 190.223 59.9825 190.073 60.2175C189.928 60.4525 189.823 60.715 189.758 61.005C189.693 61.29 189.66 61.5925 189.66 61.9125V66H188.078ZM198.514 66C198.004 66.1 197.504 66.1425 197.014 66.1275C196.524 66.1125 196.086 66.0175 195.701 65.8425C195.316 65.6675 195.026 65.3925 194.831 65.0175C194.656 64.6825 194.561 64.3425 194.546 63.9975C194.536 63.6475 194.531 63.2525 194.531 62.8125V55.65H196.106V62.7375C196.106 63.0625 196.109 63.345 196.114 63.585C196.124 63.825 196.176 64.0275 196.271 64.1925C196.451 64.5025 196.736 64.68 197.126 64.725C197.521 64.765 197.984 64.7475 198.514 64.6725V66ZM192.979 59.16V57.9H198.514V59.16H192.979ZM201.097 69.6L202.664 65.3325L202.687 66.5925L199.154 57.9H200.789L203.429 64.6125H202.949L205.469 57.9H207.059L202.589 69.6H201.097ZM213.772 66L210.262 55.2H211.89L214.882 64.4175L217.912 55.2H219.54L216.03 66H213.772ZM223.37 66.225C222.565 66.225 221.857 66.05 221.247 65.7C220.642 65.345 220.17 64.8525 219.83 64.2225C219.495 63.5875 219.327 62.8525 219.327 62.0175C219.327 61.1325 219.492 60.365 219.822 59.715C220.157 59.065 220.622 58.5625 221.217 58.2075C221.812 57.8525 222.505 57.675 223.295 57.675C224.12 57.675 224.822 57.8675 225.402 58.2525C225.982 58.6325 226.415 59.175 226.7 59.88C226.99 60.585 227.105 61.4225 227.045 62.3925H225.477V61.8225C225.467 60.8825 225.287 60.1875 224.937 59.7375C224.592 59.2875 224.065 59.0625 223.355 59.0625C222.57 59.0625 221.98 59.31 221.585 59.805C221.19 60.3 220.992 61.015 220.992 61.95C220.992 62.84 221.19 63.53 221.585 64.02C221.98 64.505 222.55 64.7475 223.295 64.7475C223.785 64.7475 224.207 64.6375 224.562 64.4175C224.922 64.1925 225.202 63.8725 225.402 63.4575L226.94 63.945C226.625 64.67 226.147 65.2325 225.507 65.6325C224.867 66.0275 224.155 66.225 223.37 66.225ZM220.482 62.3925V61.17H226.265V62.3925H220.482ZM228.727 66V57.9H230.122V59.865L229.927 59.61C230.027 59.35 230.157 59.1125 230.317 58.8975C230.477 58.6775 230.662 58.4975 230.872 58.3575C231.077 58.2075 231.305 58.0925 231.555 58.0125C231.81 57.9275 232.07 57.8775 232.335 57.8625C232.6 57.8425 232.855 57.855 233.1 57.9V59.37C232.835 59.3 232.54 59.28 232.215 59.31C231.895 59.34 231.6 59.4425 231.33 59.6175C231.075 59.7825 230.872 59.9825 230.722 60.2175C230.577 60.4525 230.472 60.715 230.407 61.005C230.342 61.29 230.31 61.5925 230.31 61.9125V66H228.727ZM234.678 56.5725V55.05H236.246V56.5725H234.678ZM234.678 66V57.9H236.246V66H234.678ZM239.24 66V57.615C239.24 57.41 239.248 57.1925 239.263 56.9625C239.278 56.7275 239.32 56.4975 239.39 56.2725C239.465 56.0425 239.588 55.8325 239.758 55.6425C239.963 55.4175 240.188 55.2575 240.433 55.1625C240.678 55.0675 240.92 55.0125 241.16 54.9975C241.405 54.9825 241.63 54.975 241.835 54.975H242.855V56.265H241.91C241.54 56.265 241.263 56.3575 241.078 56.5425C240.898 56.7225 240.808 56.98 240.808 57.315V66H239.24ZM237.898 59.16V57.9H242.855V59.16H237.898ZM244.43 56.5725V55.05H245.998V56.5725H244.43ZM244.43 66V57.9H245.998V66H244.43ZM251.846 66.225C251.041 66.225 250.334 66.05 249.724 65.7C249.119 65.345 248.646 64.8525 248.306 64.2225C247.971 63.5875 247.804 62.8525 247.804 62.0175C247.804 61.1325 247.969 60.365 248.299 59.715C248.634 59.065 249.099 58.5625 249.694 58.2075C250.289 57.8525 250.981 57.675 251.771 57.675C252.596 57.675 253.299 57.8675 253.879 58.2525C254.459 58.6325 254.891 59.175 255.176 59.88C255.466 60.585 255.581 61.4225 255.521 62.3925H253.954V61.8225C253.944 60.8825 253.764 60.1875 253.414 59.7375C253.069 59.2875 252.541 59.0625 251.831 59.0625C251.046 59.0625 250.456 59.31 250.061 59.805C249.666 60.3 249.469 61.015 249.469 61.95C249.469 62.84 249.666 63.53 250.061 64.02C250.456 64.505 251.026 64.7475 251.771 64.7475C252.261 64.7475 252.684 64.6375 253.039 64.4175C253.399 64.1925 253.679 63.8725 253.879 63.4575L255.416 63.945C255.101 64.67 254.624 65.2325 253.984 65.6325C253.344 66.0275 252.631 66.225 251.846 66.225ZM248.959 62.3925V61.17H254.741V62.3925H248.959ZM260.421 66.225C259.666 66.225 259.014 66.0375 258.464 65.6625C257.919 65.2875 257.496 64.7775 257.196 64.1325C256.901 63.4825 256.754 62.7525 256.754 61.9425C256.754 61.1275 256.904 60.4 257.204 59.76C257.504 59.115 257.929 58.6075 258.479 58.2375C259.034 57.8625 259.691 57.675 260.451 57.675C261.216 57.675 261.859 57.8625 262.379 58.2375C262.904 58.6075 263.299 59.115 263.564 59.76C263.834 60.405 263.969 61.1325 263.969 61.9425C263.969 62.7525 263.834 63.48 263.564 64.125C263.294 64.77 262.896 65.2825 262.371 65.6625C261.846 66.0375 261.196 66.225 260.421 66.225ZM260.639 64.8075C261.154 64.8075 261.574 64.685 261.899 64.44C262.224 64.195 262.461 63.8575 262.611 63.4275C262.761 62.9975 262.836 62.5025 262.836 61.9425C262.836 61.3825 262.759 60.8875 262.604 60.4575C262.454 60.0275 262.219 59.6925 261.899 59.4525C261.584 59.2125 261.181 59.0925 260.691 59.0925C260.171 59.0925 259.744 59.22 259.409 59.475C259.074 59.73 258.824 60.0725 258.659 60.5025C258.499 60.9325 258.419 61.4125 258.419 61.9425C258.419 62.4775 258.499 62.9625 258.659 63.3975C258.824 63.8275 259.069 64.17 259.394 64.425C259.724 64.68 260.139 64.8075 260.639 64.8075ZM262.836 66V60.1725H262.656V55.2H264.231V66H262.836Z" fill="#F4B942"/>
<g clip-path="url(#clip0_1029_256)">
<path d="M204.807 31.5C205.44 24.4922 211.331 19 218.502 19C219.198 19 219.877 19.0547 220.542 19.1484L203.932 4.54688C203.463 4.15625 202.838 4 202.292 4C201.745 4 201.12 4.07812 200.573 4.625L180.534 22.0859C179.987 22.6328 179.752 23.2578 179.752 23.9609C179.752 25.3672 180.846 26.4688 182.252 26.4688H184.752V31.9141C184.745 31.9844 184.745 32.0547 184.745 32.1328V40.8828C184.745 42.6094 186.143 44.0078 187.87 44.0078H189.12C189.213 44.0078 189.307 44 189.401 43.9922C189.518 44 189.635 44.0078 189.752 44.0078H194.12C195.846 44.0078 197.245 42.6094 197.245 40.8828V34.0078C197.245 32.625 198.362 31.5078 199.745 31.5078H204.799L204.807 31.5ZM229.752 32.75C229.752 29.7663 228.567 26.9048 226.457 24.795C224.348 22.6853 221.486 21.5 218.502 21.5C215.519 21.5 212.657 22.6853 210.547 24.795C208.438 26.9048 207.252 29.7663 207.252 32.75C207.252 35.7337 208.438 38.5952 210.547 40.7049C212.657 42.8147 215.519 44 218.502 44C221.486 44 224.348 42.8147 226.457 40.7049C228.567 38.5952 229.752 35.7337 229.752 32.75ZM223.76 29.3672C224.245 29.8516 224.245 30.6484 223.76 31.1328L218.135 36.7578C217.651 37.2422 216.854 37.2422 216.37 36.7578L213.245 33.6328C212.76 33.1484 212.76 32.3516 213.245 31.8672C213.729 31.3828 214.526 31.3828 215.01 31.8672L217.252 34.1094L221.995 29.3672C222.479 28.8828 223.276 28.8828 223.76 29.3672Z" fill="#FAFAF8"/>
</g>
<path d="M301.223 66.897L302.034 7.10334" stroke="#FAFAF8" stroke-width="2" stroke-linecap="round" stroke-linejoin="round"/>
<path d="M405.505 6.1665V18.6665C405.505 19.7716 405.944 20.8314 406.725 21.6128C407.507 22.3942 408.566 22.8332 409.671 22.8332H422.171V43.6665C422.171 44.7716 421.732 45.8314 420.951 46.6128C420.17 47.3942 419.11 47.8332 418.005 47.8332H403.817C405.974 45.5886 407.291 42.6697 407.547 39.5677C407.804 36.4658 406.984 33.3702 405.226 30.8019C403.467 28.2336 400.878 26.3494 397.893 25.4664C394.908 24.5835 391.711 24.7557 388.838 25.954V10.3332C388.838 9.2281 389.277 8.16829 390.059 7.38689C390.84 6.60549 391.9 6.1665 393.005 6.1665H405.505Z" fill="#FAFAF8"/>
<path d="M408.63 7.20801V18.6663C408.63 18.9426 408.74 19.2076 408.935 19.4029C409.13 19.5983 409.395 19.708 409.671 19.708H421.13L408.63 7.20801ZM405.505 38.458C405.505 39.9627 405.208 41.4527 404.633 42.8429C404.057 44.2331 403.213 45.4963 402.149 46.5603C401.085 47.6243 399.822 48.4683 398.431 49.0441C397.041 49.62 395.551 49.9163 394.046 49.9163C392.542 49.9163 391.052 49.62 389.662 49.0441C388.271 48.4683 387.008 47.6243 385.944 46.5603C384.88 45.4963 384.036 44.2331 383.46 42.8429C382.885 41.4527 382.588 39.9627 382.588 38.458C382.588 35.4191 383.795 32.5046 385.944 30.3557C388.093 28.2069 391.008 26.9997 394.046 26.9997C397.085 26.9997 400 28.2069 402.149 30.3557C404.298 32.5046 405.505 35.4191 405.505 38.458ZM401.034 33.5538C400.937 33.4568 400.822 33.3799 400.696 33.3274C400.569 33.2748 400.433 33.2478 400.296 33.2478C400.159 33.2478 400.024 33.2748 399.897 33.3274C399.771 33.3799 399.656 33.4568 399.559 33.5538L391.963 41.1518L388.534 37.7205C388.338 37.5249 388.073 37.415 387.796 37.415C387.52 37.415 387.255 37.5249 387.059 37.7205C386.863 37.9161 386.753 38.1814 386.753 38.458C386.753 38.7346 386.863 38.9999 387.059 39.1955L391.226 43.3622C391.322 43.4592 391.437 43.5361 391.564 43.5887C391.69 43.6412 391.826 43.6682 391.963 43.6682C392.1 43.6682 392.236 43.6412 392.362 43.5887C392.489 43.5361 392.604 43.4592 392.701 43.3622L401.034 35.0288C401.131 34.9321 401.208 34.8171 401.26 34.6906C401.313 34.564 401.34 34.4284 401.34 34.2913C401.34 34.1543 401.313 34.0187 401.26 33.8921C401.208 33.7656 401.131 33.6506 401.034 33.5538Z" fill="#FAFAF8"/>
<path d="M338.555 68V57.2H341.937C342.037 57.2 342.222 57.2025 342.492 57.2075C342.767 57.2125 343.03 57.2325 343.28 57.2675C344.125 57.3725 344.835 57.675 345.41 58.175C345.99 58.675 346.427 59.31 346.722 60.08C347.017 60.845 347.165 61.685 347.165 62.6C347.165 63.52 347.017 64.365 346.722 65.135C346.427 65.9 345.99 66.5325 345.41 67.0325C344.835 67.5275 344.125 67.8275 343.28 67.9325C343.03 67.9675 342.767 67.9875 342.492 67.9925C342.222 67.9975 342.037 68 341.937 68H338.555ZM340.16 66.5075H341.937C342.107 66.5075 342.31 66.5025 342.545 66.4925C342.78 66.4825 342.987 66.4625 343.167 66.4325C343.717 66.3275 344.162 66.09 344.502 65.72C344.847 65.345 345.1 64.885 345.26 64.34C345.42 63.795 345.5 63.215 345.5 62.6C345.5 61.965 345.417 61.3775 345.252 60.8375C345.087 60.2925 344.832 59.8375 344.487 59.4725C344.147 59.1025 343.707 58.8675 343.167 58.7675C342.987 58.7325 342.777 58.7125 342.537 58.7075C342.302 58.6975 342.102 58.6925 341.937 58.6925H340.16V66.5075ZM352.429 68.225C351.619 68.225 350.916 68.0425 350.321 67.6775C349.726 67.3125 349.266 66.81 348.941 66.17C348.621 65.525 348.461 64.7825 348.461 63.9425C348.461 63.0975 348.626 62.355 348.956 61.715C349.286 61.07 349.749 60.57 350.344 60.215C350.939 59.855 351.634 59.675 352.429 59.675C353.239 59.675 353.941 59.8575 354.536 60.2225C355.131 60.5875 355.591 61.09 355.916 61.73C356.241 62.37 356.404 63.1075 356.404 63.9425C356.404 64.7875 356.239 65.5325 355.909 66.1775C355.584 66.8175 355.124 67.32 354.529 67.685C353.934 68.045 353.234 68.225 352.429 68.225ZM352.429 66.7475C353.204 66.7475 353.781 66.4875 354.161 65.9675C354.546 65.4425 354.739 64.7675 354.739 63.9425C354.739 63.0975 354.544 62.4225 354.154 61.9175C353.769 61.4075 353.194 61.1525 352.429 61.1525C351.904 61.1525 351.471 61.2725 351.131 61.5125C350.791 61.7475 350.539 62.075 350.374 62.495C350.209 62.91 350.126 63.3925 350.126 63.9425C350.126 64.7925 350.321 65.4725 350.711 65.9825C351.101 66.4925 351.674 66.7475 352.429 66.7475ZM361.517 68.225C360.687 68.225 359.982 68.04 359.402 67.67C358.822 67.3 358.377 66.7925 358.067 66.1475C357.762 65.5025 357.607 64.77 357.602 63.95C357.607 63.115 357.767 62.3775 358.082 61.7375C358.397 61.0925 358.847 60.5875 359.432 60.2225C360.017 59.8575 360.719 59.675 361.539 59.675C362.424 59.675 363.179 59.895 363.804 60.335C364.434 60.775 364.849 61.3775 365.049 62.1425L363.489 62.5925C363.334 62.1375 363.079 61.785 362.724 61.535C362.374 61.28 361.972 61.1525 361.517 61.1525C361.002 61.1525 360.579 61.275 360.249 61.52C359.919 61.76 359.674 62.09 359.514 62.51C359.354 62.93 359.272 63.41 359.267 63.95C359.272 64.785 359.462 65.46 359.837 65.975C360.217 66.49 360.777 66.7475 361.517 66.7475C362.022 66.7475 362.429 66.6325 362.739 66.4025C363.054 66.1675 363.294 65.8325 363.459 65.3975L365.049 65.7725C364.784 66.5625 364.347 67.17 363.737 67.595C363.127 68.015 362.387 68.225 361.517 68.225ZM369.63 68.2175C369.07 68.2175 368.6 68.1275 368.22 67.9475C367.84 67.7675 367.53 67.5325 367.29 67.2425C367.055 66.9475 366.875 66.6275 366.75 66.2825C366.625 65.9375 366.54 65.6 366.495 65.27C366.45 64.94 366.427 64.65 366.427 64.4V59.9H368.017V63.8825C368.017 64.1975 368.042 64.5225 368.092 64.8575C368.147 65.1875 368.247 65.495 368.392 65.78C368.542 66.065 368.75 66.295 369.015 66.47C369.285 66.645 369.635 66.7325 370.065 66.7325C370.345 66.7325 370.61 66.6875 370.86 66.5975C371.11 66.5025 371.327 66.3525 371.512 66.1475C371.702 65.9425 371.85 65.6725 371.955 65.3375C372.065 65.0025 372.12 64.595 372.12 64.115L373.095 64.4825C373.095 65.2175 372.957 65.8675 372.682 66.4325C372.407 66.9925 372.012 67.43 371.497 67.745C370.982 68.06 370.36 68.2175 369.63 68.2175ZM372.307 68V65.66H372.12V59.9H373.702V68H372.307ZM385.511 68L385.518 62.9525C385.518 62.3675 385.368 61.9125 385.068 61.5875C384.768 61.2575 384.373 61.0925 383.883 61.0925C383.583 61.0925 383.308 61.1625 383.058 61.3025C382.813 61.4375 382.613 61.6425 382.458 61.9175C382.308 62.1875 382.233 62.5275 382.233 62.9375L381.476 62.555C381.466 61.985 381.586 61.485 381.836 61.055C382.091 60.625 382.436 60.2925 382.871 60.0575C383.306 59.8175 383.793 59.6975 384.333 59.6975C385.208 59.6975 385.886 59.96 386.366 60.485C386.846 61.01 387.086 61.7075 387.086 62.5775L387.078 68H385.511ZM375.798 68V59.9H377.193V62.24H377.373V68H375.798ZM380.658 68L380.666 62.9825C380.666 62.3925 380.516 61.93 380.216 61.595C379.921 61.26 379.523 61.0925 379.023 61.0925C378.528 61.0925 378.128 61.2625 377.823 61.6025C377.523 61.9425 377.373 62.3875 377.373 62.9375L376.623 62.4575C376.623 61.9275 376.751 61.455 377.006 61.04C377.261 60.625 377.606 60.2975 378.041 60.0575C378.476 59.8175 378.968 59.6975 379.518 59.6975C380.093 59.6975 380.583 59.82 380.988 60.065C381.393 60.305 381.701 60.6425 381.911 61.0775C382.126 61.5125 382.233 62.0175 382.233 62.5925L382.226 68H380.658ZM392.523 68.225C391.718 68.225 391.011 68.05 390.401 67.7C389.796 67.345 389.323 66.8525 388.983 66.2225C388.648 65.5875 388.481 64.8525 388.481 64.0175C388.481 63.1325 388.646 62.365 388.976 61.715C389.311 61.065 389.776 60.5625 390.371 60.2075C390.966 59.8525 391.658 59.675 392.448 59.675C393.273 59.675 393.976 59.8675 394.556 60.2525C395.136 60.6325 395.568 61.175 395.853 61.88C396.143 62.585 396.258 63.4225 396.198 64.3925H394.631V63.8225C394.621 62.8825 394.441 62.1875 394.091 61.7375C393.746 61.2875 393.218 61.0625 392.508 61.0625C391.723 61.0625 391.133 61.31 390.738 61.805C390.343 62.3 390.146 63.015 390.146 63.95C390.146 64.84 390.343 65.53 390.738 66.02C391.133 66.505 391.703 66.7475 392.448 66.7475C392.938 66.7475 393.361 66.6375 393.716 66.4175C394.076 66.1925 394.356 65.8725 394.556 65.4575L396.093 65.945C395.778 66.67 395.301 67.2325 394.661 67.6325C394.021 68.0275 393.308 68.225 392.523 68.225ZM389.636 64.3925V63.17H395.418V64.3925H389.636ZM403.346 68V64.0175C403.346 63.7025 403.319 63.38 403.264 63.05C403.214 62.715 403.114 62.405 402.964 62.12C402.819 61.835 402.611 61.605 402.341 61.43C402.076 61.255 401.729 61.1675 401.299 61.1675C401.019 61.1675 400.754 61.215 400.504 61.31C400.254 61.4 400.034 61.5475 399.844 61.7525C399.659 61.9575 399.511 62.2275 399.401 62.5625C399.296 62.8975 399.244 63.305 399.244 63.785L398.269 63.4175C398.269 62.6825 398.406 62.035 398.681 61.475C398.956 60.91 399.351 60.47 399.866 60.155C400.381 59.84 401.004 59.6825 401.734 59.6825C402.294 59.6825 402.764 59.7725 403.144 59.9525C403.524 60.1325 403.831 60.37 404.066 60.665C404.306 60.955 404.489 61.2725 404.614 61.6175C404.739 61.9625 404.824 62.3 404.869 62.63C404.914 62.96 404.936 63.25 404.936 63.5V68H403.346ZM397.654 68V59.9H399.056V62.24H399.244V68H397.654ZM411.525 68C411.015 68.1 410.515 68.1425 410.025 68.1275C409.535 68.1125 409.097 68.0175 408.712 67.8425C408.327 67.6675 408.037 67.3925 407.842 67.0175C407.667 66.6825 407.572 66.3425 407.557 65.9975C407.547 65.6475 407.542 65.2525 407.542 64.8125V57.65H409.117V64.7375C409.117 65.0625 409.12 65.345 409.125 65.585C409.135 65.825 409.187 66.0275 409.282 66.1925C409.462 66.5025 409.747 66.68 410.137 66.725C410.532 66.765 410.995 66.7475 411.525 66.6725V68ZM405.99 61.16V59.9H411.525V61.16H405.99ZM418.77 68L415.26 57.2H416.888L419.88 66.4175L422.91 57.2H424.538L421.028 68H418.77ZM428.368 68.225C427.563 68.225 426.855 68.05 426.245 67.7C425.64 67.345 425.168 66.8525 424.828 66.2225C424.493 65.5875 424.325 64.8525 424.325 64.0175C424.325 63.1325 424.49 62.365 424.82 61.715C425.155 61.065 425.62 60.5625 426.215 60.2075C426.81 59.8525 427.503 59.675 428.293 59.675C429.118 59.675 429.82 59.8675 430.4 60.2525C430.98 60.6325 431.413 61.175 431.698 61.88C431.988 62.585 432.103 63.4225 432.043 64.3925H430.475V63.8225C430.465 62.8825 430.285 62.1875 429.935 61.7375C429.59 61.2875 429.063 61.0625 428.353 61.0625C427.568 61.0625 426.978 61.31 426.583 61.805C426.188 62.3 425.99 63.015 425.99 63.95C425.99 64.84 426.188 65.53 426.583 66.02C426.978 66.505 427.548 66.7475 428.293 66.7475C428.783 66.7475 429.205 66.6375 429.56 66.4175C429.92 66.1925 430.2 65.8725 430.4 65.4575L431.938 65.945C431.623 66.67 431.145 67.2325 430.505 67.6325C429.865 68.0275 429.153 68.225 428.368 68.225ZM425.48 64.3925V63.17H431.263V64.3925H425.48ZM433.726 68V59.9H435.121V61.865L434.926 61.61C435.026 61.35 435.156 61.1125 435.316 60.8975C435.476 60.6775 435.661 60.4975 435.871 60.3575C436.076 60.2075 436.303 60.0925 436.553 60.0125C436.808 59.9275 437.068 59.8775 437.333 59.8625C437.598 59.8425 437.853 59.855 438.098 59.9V61.37C437.833 61.3 437.538 61.28 437.213 61.31C436.893 61.34 436.598 61.4425 436.328 61.6175C436.073 61.7825 435.871 61.9825 435.721 62.2175C435.576 62.4525 435.471 62.715 435.406 63.005C435.341 63.29 435.308 63.5925 435.308 63.9125V68H433.726ZM439.676 58.5725V57.05H441.244V58.5725H439.676ZM439.676 68V59.9H441.244V68H439.676ZM444.239 68V59.615C444.239 59.41 444.246 59.1925 444.261 58.9625C444.276 58.7275 444.319 58.4975 444.389 58.2725C444.464 58.0425 444.586 57.8325 444.756 57.6425C444.961 57.4175 445.186 57.2575 445.431 57.1625C445.676 57.0675 445.919 57.0125 446.159 56.9975C446.404 56.9825 446.629 56.975 446.834 56.975H447.854V58.265H446.909C446.539 58.265 446.261 58.3575 446.076 58.5425C445.896 58.7225 445.806 58.98 445.806 59.315V68H444.239ZM442.896 61.16V59.9H447.854V61.16H442.896ZM449.429 58.5725V57.05H450.996V58.5725H449.429ZM449.429 68V59.9H450.996V68H449.429ZM456.845 68.225C456.04 68.225 455.332 68.05 454.722 67.7C454.117 67.345 453.645 66.8525 453.305 66.2225C452.97 65.5875 452.802 64.8525 452.802 64.0175C452.802 63.1325 452.967 62.365 453.297 61.715C453.632 61.065 454.097 60.5625 454.692 60.2075C455.287 59.8525 455.98 59.675 456.77 59.675C457.595 59.675 458.297 59.8675 458.877 60.2525C459.457 60.6325 459.89 61.175 460.175 61.88C460.465 62.585 460.58 63.4225 460.52 64.3925H458.952V63.8225C458.942 62.8825 458.762 62.1875 458.412 61.7375C458.067 61.2875 457.54 61.0625 456.83 61.0625C456.045 61.0625 455.455 61.31 455.06 61.805C454.665 62.3 454.467 63.015 454.467 63.95C454.467 64.84 454.665 65.53 455.06 66.02C455.455 66.505 456.025 66.7475 456.77 66.7475C457.26 66.7475 457.682 66.6375 458.037 66.4175C458.397 66.1925 458.677 65.8725 458.877 65.4575L460.415 65.945C460.1 66.67 459.622 67.2325 458.982 67.6325C458.342 68.0275 457.63 68.225 456.845 68.225ZM453.957 64.3925V63.17H459.74V64.3925H453.957ZM465.42 68.225C464.665 68.225 464.012 68.0375 463.462 67.6625C462.917 67.2875 462.495 66.7775 462.195 66.1325C461.9 65.4825 461.752 64.7525 461.752 63.9425C461.752 63.1275 461.902 62.4 462.202 61.76C462.502 61.115 462.927 60.6075 463.477 60.2375C464.032 59.8625 464.69 59.675 465.45 59.675C466.215 59.675 466.857 59.8625 467.377 60.2375C467.902 60.6075 468.297 61.115 468.562 61.76C468.832 62.405 468.967 63.1325 468.967 63.9425C468.967 64.7525 468.832 65.48 468.562 66.125C468.292 66.77 467.895 67.2825 467.37 67.6625C466.845 68.0375 466.195 68.225 465.42 68.225ZM465.637 66.8075C466.152 66.8075 466.572 66.685 466.897 66.44C467.222 66.195 467.46 65.8575 467.61 65.4275C467.76 64.9975 467.835 64.5025 467.835 63.9425C467.835 63.3825 467.757 62.8875 467.602 62.4575C467.452 62.0275 467.217 61.6925 466.897 61.4525C466.582 61.2125 466.18 61.0925 465.69 61.0925C465.17 61.0925 464.742 61.22 464.407 61.475C464.072 61.73 463.822 62.0725 463.657 62.5025C463.497 62.9325 463.417 63.4125 463.417 63.9425C463.417 64.4775 463.497 64.9625 463.657 65.3975C463.822 65.8275 464.067 66.17 464.392 66.425C464.722 66.68 465.137 66.8075 465.637 66.8075ZM467.835 68V62.1725H467.655V57.2H469.23V68H467.835Z" fill="#F4B942"/>
<path d="M505.976 66.897L506.786 7.10334" stroke="#FAFAF8" stroke-width="2" stroke-linecap="round" stroke-linejoin="round"/>
<path d="M543.307 62V51.2H546.69C546.79 51.2 546.975 51.2025 547.245 51.2075C547.52 51.2125 547.782 51.2325 548.032 51.2675C548.877 51.3725 549.587 51.675 550.162 52.175C550.742 52.675 551.18 53.31 551.475 54.08C551.77 54.845 551.917 55.685 551.917 56.6C551.917 57.52 551.77 58.365 551.475 59.135C551.18 59.9 550.742 60.5325 550.162 61.0325C549.587 61.5275 548.877 61.8275 548.032 61.9325C547.782 61.9675 547.52 61.9875 547.245 61.9925C546.975 61.9975 546.79 62 546.69 62H543.307ZM544.912 60.5075H546.69C546.86 60.5075 547.062 60.5025 547.297 60.4925C547.532 60.4825 547.74 60.4625 547.92 60.4325C548.47 60.3275 548.915 60.09 549.255 59.72C549.6 59.345 549.852 58.885 550.012 58.34C550.172 57.795 550.252 57.215 550.252 56.6C550.252 55.965 550.17 55.3775 550.005 54.8375C549.84 54.2925 549.585 53.8375 549.24 53.4725C548.9 53.1025 548.46 52.8675 547.92 52.7675C547.74 52.7325 547.53 52.7125 547.29 52.7075C547.055 52.6975 546.855 52.6925 546.69 52.6925H544.912V60.5075ZM553.814 52.5725V51.05H555.381V52.5725H553.814ZM553.814 62V53.9H555.381V62H553.814ZM557.633 62V53.9H559.028V55.865L558.833 55.61C558.933 55.35 559.063 55.1125 559.223 54.8975C559.383 54.6775 559.568 54.4975 559.778 54.3575C559.983 54.2075 560.211 54.0925 560.461 54.0125C560.716 53.9275 560.976 53.8775 561.241 53.8625C561.506 53.8425 561.761 53.855 562.006 53.9V55.37C561.741 55.3 561.446 55.28 561.121 55.31C560.801 55.34 560.506 55.4425 560.236 55.6175C559.981 55.7825 559.778 55.9825 559.628 56.2175C559.483 56.4525 559.378 56.715 559.313 57.005C559.248 57.29 559.216 57.5925 559.216 57.9125V62H557.633ZM566.88 62.225C566.075 62.225 565.368 62.05 564.758 61.7C564.153 61.345 563.68 60.8525 563.34 60.2225C563.005 59.5875 562.838 58.8525 562.838 58.0175C562.838 57.1325 563.003 56.365 563.333 55.715C563.668 55.065 564.133 54.5625 564.728 54.2075C565.323 53.8525 566.015 53.675 566.805 53.675C567.63 53.675 568.333 53.8675 568.913 54.2525C569.493 54.6325 569.925 55.175 570.21 55.88C570.5 56.585 570.615 57.4225 570.555 58.3925H568.988V57.8225C568.978 56.8825 568.798 56.1875 568.448 55.7375C568.103 55.2875 567.575 55.0625 566.865 55.0625C566.08 55.0625 565.49 55.31 565.095 55.805C564.7 56.3 564.503 57.015 564.503 57.95C564.503 58.84 564.7 59.53 565.095 60.02C565.49 60.505 566.06 60.7475 566.805 60.7475C567.295 60.7475 567.718 60.6375 568.073 60.4175C568.433 60.1925 568.713 59.8725 568.913 59.4575L570.45 59.945C570.135 60.67 569.658 61.2325 569.018 61.6325C568.378 62.0275 567.665 62.225 566.88 62.225ZM563.993 58.3925V57.17H569.775V58.3925H563.993ZM575.703 62.225C574.873 62.225 574.168 62.04 573.588 61.67C573.008 61.3 572.563 60.7925 572.253 60.1475C571.948 59.5025 571.793 58.77 571.788 57.95C571.793 57.115 571.953 56.3775 572.268 55.7375C572.583 55.0925 573.033 54.5875 573.618 54.2225C574.203 53.8575 574.905 53.675 575.725 53.675C576.61 53.675 577.365 53.895 577.99 54.335C578.62 54.775 579.035 55.3775 579.235 56.1425L577.675 56.5925C577.52 56.1375 577.265 55.785 576.91 55.535C576.56 55.28 576.158 55.1525 575.703 55.1525C575.188 55.1525 574.765 55.275 574.435 55.52C574.105 55.76 573.86 56.09 573.7 56.51C573.54 56.93 573.458 57.41 573.453 57.95C573.458 58.785 573.648 59.46 574.023 59.975C574.403 60.49 574.963 60.7475 575.703 60.7475C576.208 60.7475 576.615 60.6325 576.925 60.4025C577.24 60.1675 577.48 59.8325 577.645 59.3975L579.235 59.7725C578.97 60.5625 578.533 61.17 577.923 61.595C577.313 62.015 576.573 62.225 575.703 62.225ZM585.398 62C584.888 62.1 584.388 62.1425 583.898 62.1275C583.408 62.1125 582.971 62.0175 582.586 61.8425C582.201 61.6675 581.911 61.3925 581.716 61.0175C581.541 60.6825 581.446 60.3425 581.431 59.9975C581.421 59.6475 581.416 59.2525 581.416 58.8125V51.65H582.991V58.7375C582.991 59.0625 582.993 59.345 582.998 59.585C583.008 59.825 583.061 60.0275 583.156 60.1925C583.336 60.5025 583.621 60.68 584.011 60.725C584.406 60.765 584.868 60.7475 585.398 60.6725V62ZM579.863 55.16V53.9H585.398V55.16H579.863ZM594.744 62C594.234 62.1 593.734 62.1425 593.244 62.1275C592.754 62.1125 592.316 62.0175 591.931 61.8425C591.546 61.6675 591.256 61.3925 591.061 61.0175C590.886 60.6825 590.791 60.3425 590.776 59.9975C590.766 59.6475 590.761 59.2525 590.761 58.8125V51.65H592.336V58.7375C592.336 59.0625 592.339 59.345 592.344 59.585C592.354 59.825 592.406 60.0275 592.501 60.1925C592.681 60.5025 592.966 60.68 593.356 60.725C593.751 60.765 594.214 60.7475 594.744 60.6725V62ZM589.209 55.16V53.9H594.744V55.16H589.209ZM599.603 62.225C598.793 62.225 598.09 62.0425 597.495 61.6775C596.9 61.3125 596.44 60.81 596.115 60.17C595.795 59.525 595.635 58.7825 595.635 57.9425C595.635 57.0975 595.8 56.355 596.13 55.715C596.46 55.07 596.923 54.57 597.518 54.215C598.113 53.855 598.808 53.675 599.603 53.675C600.413 53.675 601.115 53.8575 601.71 54.2225C602.305 54.5875 602.765 55.09 603.09 55.73C603.415 56.37 603.578 57.1075 603.578 57.9425C603.578 58.7875 603.413 59.5325 603.083 60.1775C602.758 60.8175 602.298 61.32 601.703 61.685C601.108 62.045 600.408 62.225 599.603 62.225ZM599.603 60.7475C600.378 60.7475 600.955 60.4875 601.335 59.9675C601.72 59.4425 601.913 58.7675 601.913 57.9425C601.913 57.0975 601.718 56.4225 601.328 55.9175C600.943 55.4075 600.368 55.1525 599.603 55.1525C599.078 55.1525 598.645 55.2725 598.305 55.5125C597.965 55.7475 597.713 56.075 597.548 56.495C597.383 56.91 597.3 57.3925 597.3 57.9425C597.3 58.7925 597.495 59.4725 597.885 59.9825C598.275 60.4925 598.848 60.7475 599.603 60.7475ZM608.379 62V51.2H609.946V60.5225H614.836V62H608.379ZM618.397 62.225C617.797 62.225 617.295 62.115 616.89 61.895C616.485 61.67 616.177 61.375 615.967 61.01C615.762 60.64 615.66 60.235 615.66 59.795C615.66 59.385 615.732 59.025 615.877 58.715C616.022 58.405 616.237 58.1425 616.522 57.9275C616.807 57.7075 617.157 57.53 617.572 57.395C617.932 57.29 618.34 57.1975 618.795 57.1175C619.25 57.0375 619.727 56.9625 620.227 56.8925C620.732 56.8225 621.232 56.7525 621.727 56.6825L621.157 56.9975C621.167 56.3625 621.032 55.8925 620.752 55.5875C620.477 55.2775 620.002 55.1225 619.327 55.1225C618.902 55.1225 618.512 55.2225 618.157 55.4225C617.802 55.6175 617.555 55.9425 617.415 56.3975L615.952 55.9475C616.152 55.2525 616.532 54.7 617.092 54.29C617.657 53.88 618.407 53.675 619.342 53.675C620.067 53.675 620.697 53.8 621.232 54.05C621.772 54.295 622.167 54.685 622.417 55.22C622.547 55.485 622.627 55.765 622.657 56.06C622.687 56.355 622.702 56.6725 622.702 57.0125V62H621.315V60.1475L621.585 60.3875C621.25 61.0075 620.822 61.47 620.302 61.775C619.787 62.075 619.152 62.225 618.397 62.225ZM618.675 60.9425C619.12 60.9425 619.502 60.865 619.822 60.71C620.142 60.55 620.4 60.3475 620.595 60.1025C620.79 59.8575 620.917 59.6025 620.977 59.3375C621.062 59.0975 621.11 58.8275 621.12 58.5275C621.135 58.2275 621.142 57.9875 621.142 57.8075L621.652 57.995C621.157 58.07 620.707 58.1375 620.302 58.1975C619.897 58.2575 619.53 58.3175 619.2 58.3775C618.875 58.4325 618.585 58.5 618.33 58.58C618.115 58.655 617.922 58.745 617.752 58.85C617.587 58.955 617.455 59.0825 617.355 59.2325C617.26 59.3825 617.212 59.565 617.212 59.78C617.212 59.99 617.265 60.185 617.37 60.365C617.475 60.54 617.635 60.68 617.85 60.785C618.065 60.89 618.34 60.9425 618.675 60.9425ZM630.335 62V58.0175C630.335 57.7025 630.307 57.38 630.252 57.05C630.202 56.715 630.102 56.405 629.952 56.12C629.807 55.835 629.6 55.605 629.33 55.43C629.065 55.255 628.717 55.1675 628.287 55.1675C628.007 55.1675 627.742 55.215 627.492 55.31C627.242 55.4 627.022 55.5475 626.832 55.7525C626.647 55.9575 626.5 56.2275 626.39 56.5625C626.285 56.8975 626.232 57.305 626.232 57.785L625.257 57.4175C625.257 56.6825 625.395 56.035 625.67 55.475C625.945 54.91 626.34 54.47 626.855 54.155C627.37 53.84 627.992 53.6825 628.722 53.6825C629.282 53.6825 629.752 53.7725 630.132 53.9525C630.512 54.1325 630.82 54.37 631.055 54.665C631.295 54.955 631.477 55.2725 631.602 55.6175C631.727 55.9625 631.812 56.3 631.857 56.63C631.902 56.96 631.925 57.25 631.925 57.5V62H630.335ZM624.642 62V53.9H626.045V56.24H626.232V62H624.642ZM636.993 62.225C636.238 62.225 635.586 62.0375 635.036 61.6625C634.491 61.2875 634.068 60.7775 633.768 60.1325C633.473 59.4825 633.326 58.7525 633.326 57.9425C633.326 57.1275 633.476 56.4 633.776 55.76C634.076 55.115 634.501 54.6075 635.051 54.2375C635.606 53.8625 636.263 53.675 637.023 53.675C637.788 53.675 638.431 53.8625 638.951 54.2375C639.476 54.6075 639.871 55.115 640.136 55.76C640.406 56.405 640.541 57.1325 640.541 57.9425C640.541 58.7525 640.406 59.48 640.136 60.125C639.866 60.77 639.468 61.2825 638.943 61.6625C638.418 62.0375 637.768 62.225 636.993 62.225ZM637.211 60.8075C637.726 60.8075 638.146 60.685 638.471 60.44C638.796 60.195 639.033 59.8575 639.183 59.4275C639.333 58.9975 639.408 58.5025 639.408 57.9425C639.408 57.3825 639.331 56.8875 639.176 56.4575C639.026 56.0275 638.791 55.6925 638.471 55.4525C638.156 55.2125 637.753 55.0925 637.263 55.0925C636.743 55.0925 636.316 55.22 635.981 55.475C635.646 55.73 635.396 56.0725 635.231 56.5025C635.071 56.9325 634.991 57.4125 634.991 57.9425C634.991 58.4775 635.071 58.9625 635.231 59.3975C635.396 59.8275 635.641 60.17 635.966 60.425C636.296 60.68 636.711 60.8075 637.211 60.8075ZM639.408 62V56.1725H639.228V51.2H640.803V62H639.408ZM643.052 62V50.975H644.619V62H643.052ZM650.389 62.225C649.579 62.225 648.877 62.0425 648.282 61.6775C647.687 61.3125 647.227 60.81 646.902 60.17C646.582 59.525 646.422 58.7825 646.422 57.9425C646.422 57.0975 646.587 56.355 646.917 55.715C647.247 55.07 647.709 54.57 648.304 54.215C648.899 53.855 649.594 53.675 650.389 53.675C651.199 53.675 651.902 53.8575 652.497 54.2225C653.092 54.5875 653.552 55.09 653.877 55.73C654.202 56.37 654.364 57.1075 654.364 57.9425C654.364 58.7875 654.199 59.5325 653.869 60.1775C653.544 60.8175 653.084 61.32 652.489 61.685C651.894 62.045 651.194 62.225 650.389 62.225ZM650.389 60.7475C651.164 60.7475 651.742 60.4875 652.122 59.9675C652.507 59.4425 652.699 58.7675 652.699 57.9425C652.699 57.0975 652.504 56.4225 652.114 55.9175C651.729 55.4075 651.154 55.1525 650.389 55.1525C649.864 55.1525 649.432 55.2725 649.092 55.5125C648.752 55.7475 648.499 56.075 648.334 56.495C648.169 56.91 648.087 57.3925 648.087 57.9425C648.087 58.7925 648.282 59.4725 648.672 59.9825C649.062 60.4925 649.634 60.7475 650.389 60.7475ZM656.012 62V53.9H657.407V55.865L657.212 55.61C657.312 55.35 657.442 55.1125 657.602 54.8975C657.762 54.6775 657.947 54.4975 658.157 54.3575C658.362 54.2075 658.59 54.0925 658.84 54.0125C659.095 53.9275 659.355 53.8775 659.62 53.8625C659.885 53.8425 660.14 53.855 660.385 53.9V55.37C660.12 55.3 659.825 55.28 659.5 55.31C659.18 55.34 658.885 55.4425 658.615 55.6175C658.36 55.7825 658.157 55.9825 658.007 56.2175C657.862 56.4525 657.757 56.715 657.692 57.005C657.627 57.29 657.595 57.5925 657.595 57.9125V62H656.012ZM664.884 62.225C664.129 62.225 663.476 62.0375 662.926 61.6625C662.381 61.2875 661.959 60.7775 661.659 60.1325C661.364 59.4825 661.216 58.7525 661.216 57.9425C661.216 57.1275 661.366 56.4 661.666 55.76C661.966 55.115 662.391 54.6075 662.941 54.2375C663.496 53.8625 664.154 53.675 664.914 53.675C665.679 53.675 666.321 53.8625 666.841 54.2375C667.366 54.6075 667.761 55.115 668.026 55.76C668.296 56.405 668.431 57.1325 668.431 57.9425C668.431 58.7525 668.296 59.48 668.026 60.125C667.756 60.77 667.359 61.2825 666.834 61.6625C666.309 62.0375 665.659 62.225 664.884 62.225ZM665.101 60.8075C665.616 60.8075 666.036 60.685 666.361 60.44C666.686 60.195 666.924 59.8575 667.074 59.4275C667.224 58.9975 667.299 58.5025 667.299 57.9425C667.299 57.3825 667.221 56.8875 667.066 56.4575C666.916 56.0275 666.681 55.6925 666.361 55.4525C666.046 55.2125 665.644 55.0925 665.154 55.0925C664.634 55.0925 664.206 55.22 663.871 55.475C663.536 55.73 663.286 56.0725 663.121 56.5025C662.961 56.9325 662.881 57.4125 662.881 57.9425C662.881 58.4775 662.961 58.9625 663.121 59.3975C663.286 59.8275 663.531 60.17 663.856 60.425C664.186 60.68 664.601 60.8075 665.101 60.8075ZM667.299 62V56.1725H667.119V51.2H668.694V62H667.299Z" fill="#F4B942"/>
<g clip-path="url(#clip1_1029_256)">
<path d="M606.523 14.6562L598.96 20.7813C597.702 21.7969 597.46 23.625 598.413 24.9297C599.421 26.3203 601.382 26.5938 602.734 25.5391L610.491 19.5078C611.038 19.0859 611.82 19.1797 612.249 19.7266C612.679 20.2734 612.577 21.0547 612.031 21.4844L610.398 22.75L621.257 32.75V18H621.202L620.898 17.8047L615.226 14.1719C614.031 13.4062 612.632 13 611.21 13C609.507 13 607.851 13.5859 606.523 14.6562ZM608.304 24.375L604.265 27.5156C601.804 29.4375 598.234 28.9375 596.39 26.4062C594.656 24.0234 595.093 20.6953 597.382 18.8438L603.882 13.5859C602.976 13.2031 601.999 13.0078 601.007 13.0078C599.538 13 598.109 13.4375 596.882 14.25L591.257 18V35.5H593.46L600.601 42.0156C602.132 43.4141 604.499 43.3047 605.898 41.7734C606.327 41.2969 606.616 40.7422 606.765 40.1641L608.093 41.3828C609.616 42.7812 611.991 42.6797 613.39 41.1562C613.741 40.7734 613.999 40.3281 614.163 39.8672C615.679 40.8828 617.741 40.6719 619.015 39.2812C620.413 37.7578 620.312 35.3828 618.788 33.9844L608.304 24.375ZM582.507 18C581.82 18 581.257 18.5625 581.257 19.25V35.5C581.257 36.8828 582.374 38 583.757 38H586.257C587.64 38 588.757 36.8828 588.757 35.5V18H582.507ZM585.007 33C585.339 33 585.657 33.1317 585.891 33.3661C586.125 33.6005 586.257 33.9185 586.257 34.25C586.257 34.5815 586.125 34.8995 585.891 35.1339C585.657 35.3683 585.339 35.5 585.007 35.5C584.676 35.5 584.358 35.3683 584.123 35.1339C583.889 34.8995 583.757 34.5815 583.757 34.25C583.757 33.9185 583.889 33.6005 584.123 33.3661C584.358 33.1317 584.676 33 585.007 33ZM623.757 18V35.5C623.757 36.8828 624.874 38 626.257 38H628.757C630.14 38 631.257 36.8828 631.257 35.5V19.25C631.257 18.5625 630.695 18 630.007 18H623.757ZM626.257 34.25C626.257 33.9185 626.389 33.6005 626.623 33.3661C626.858 33.1317 627.176 33 627.507 33C627.839 33 628.157 33.1317 628.391 33.3661C628.625 33.6005 628.757 33.9185 628.757 34.25C628.757 34.5815 628.625 34.8995 628.391 35.1339C628.157 35.3683 627.839 35.5 627.507 35.5C627.176 35.5 626.858 35.3683 626.623 35.1339C626.389 34.8995 626.257 34.5815 626.257 34.25Z" fill="#FAFAF8"/>
</g>
<defs>
<clipPath id="clip0_1029_256">
<rect width="50" height="40" fill="white" transform="translate(179.752 4)"/>
</clipPath>
<clipPath id="clip1_1029_256">
<rect width="50" height="40" fill="white" transform="translate(581.257 8)"/>
</clipPath>
</defs>
</svg>
