<svg width="25" height="25" viewBox="0 0 25 25" fill="none" xmlns="http://www.w3.org/2000/svg">
<path d="M6.76048 11.0187C8.23101 13.9087 10.6002 16.2676 13.4902 17.7484L15.7369 15.5017C16.0126 15.226 16.4211 15.1341 16.7785 15.2566C17.9222 15.6345 19.1579 15.8387 20.4242 15.8387C20.9858 15.8387 21.4454 16.2983 21.4454 16.8599V20.4239C21.4454 20.9856 20.9858 21.4451 20.4242 21.4451C10.8351 21.4451 3.06372 13.6738 3.06372 4.08468C3.06372 3.52302 3.52326 3.06348 4.08492 3.06348H7.65914C8.2208 3.06348 8.68034 3.52302 8.68034 4.08468C8.68034 5.36119 8.88458 6.58663 9.26243 7.73038C9.37476 8.0878 9.29306 8.48607 9.00713 8.77201L6.76048 11.0187Z" fill="white"/>
</svg>
