<svg width="66" height="66" viewBox="0 0 66 66" fill="none" xmlns="http://www.w3.org/2000/svg">
<g clip-path="url(#clip0_1470_441)">
<path d="M17.9693 3.6161C23.6511 0.711174 30.0535 -0.483365 36.4005 0.177264C37.2163 0.262016 37.965 0.667372 38.482 1.30416C38.9989 1.94095 39.2417 2.757 39.1569 3.5728C39.0722 4.38861 38.6668 5.13733 38.03 5.65426C37.3932 6.17119 36.5772 6.41398 35.7614 6.32923C30.6041 5.79285 25.402 6.76395 20.7856 9.12483L19.8702 9.61138C15.3491 12.1487 11.6609 15.9429 9.25267 20.534L8.79086 21.4618C6.40888 26.4615 5.63422 32.0764 6.57341 37.5343C7.5126 42.9923 10.1195 48.0252 14.0357 51.9412L14.7779 52.6587C18.5841 56.1821 23.3309 58.5254 28.4425 59.4044L29.4651 59.5569C34.6059 60.2379 39.8339 59.4129 44.5152 57.1819L45.4388 56.7201C50.187 54.2289 54.0788 50.3707 56.611 45.6442C59.1433 40.9178 60.1997 35.5404 59.6436 30.2073L62.7196 29.8898L65.7955 29.5682C66.4793 36.1315 65.1788 42.749 62.0622 48.5655C58.9455 54.3819 54.1561 59.1299 48.3127 62.1959L47.1747 62.7649C41.4135 65.5106 34.9796 66.5261 28.6528 65.6883L27.3911 65.4945C21.1031 64.4131 15.2637 61.5314 10.5804 57.1984L9.665 56.316C4.84396 51.497 1.63423 45.3028 0.477213 38.5852C-0.679804 31.8675 0.272717 24.9564 3.20379 18.8022L3.77693 17.6642C6.74197 12.0136 11.2824 7.34426 16.8478 4.22222L17.9693 3.6161ZM50.3867 0.907089C50.8192 0.475147 51.37 0.181054 51.9695 0.0619549C52.5691 -0.0571442 53.1904 0.00409241 53.7552 0.237931C54.3199 0.471769 54.8027 0.86772 55.1425 1.37577C55.4824 1.88383 55.664 2.4812 55.6646 3.09244V10.3082H62.8804L63.3422 10.3495C63.8683 10.4297 64.3649 10.6443 64.7838 10.9727C65.2027 11.301 65.5298 11.7319 65.7334 12.2237C65.937 12.7155 66.0102 13.2515 65.946 13.7798C65.8817 14.3082 65.6822 14.811 65.3667 15.2397L65.0657 15.5902L52.6958 27.9601C52.1164 28.5402 51.3303 28.8665 50.5104 28.8672H48.9436C49.436 30.7549 49.5895 32.715 49.3972 34.6563L49.2157 35.9139C48.6504 39.0508 47.1883 41.9567 45.0061 44.2801C42.824 46.6035 40.0154 48.2447 36.92 49.0054L35.6707 49.2611C32.7394 49.7441 29.7321 49.4264 26.9664 48.3416L25.7995 47.8344C23.1245 46.5387 20.8493 44.5442 19.2146 42.0618L18.5548 40.9732C16.9062 37.9955 16.2192 34.5805 16.588 31.1969L16.7777 29.9351C17.3284 27.0154 18.6575 24.2987 20.6247 22.072L21.503 21.1484C23.6355 19.0811 26.2866 17.6281 29.1765 16.9426L29.4898 16.8808C30.2788 16.7721 31.0793 16.9721 31.7245 17.439C32.3698 17.9059 32.81 18.6038 32.9535 19.3872C33.097 20.1706 32.9327 20.9791 32.4949 21.6444C32.057 22.3097 31.3794 22.7804 30.6031 22.9585L29.8403 23.1688C28.3276 23.6541 26.9475 24.4824 25.8077 25.5892L25.2593 26.1623C24.0223 27.556 23.1977 29.2589 22.8555 31.0773L22.7359 31.869C22.5051 33.9839 22.9343 36.1184 23.9646 37.9797L24.377 38.66C25.3991 40.21 26.8208 41.4551 28.492 42.2638L29.2218 42.5854C30.9509 43.2648 32.8315 43.4642 34.6646 43.1627L35.4439 42.9978C37.3785 42.5226 39.1339 41.4971 40.4979 40.0453C41.8619 38.5935 42.7761 36.7775 43.1297 34.8171L43.2411 34.0337C43.4197 32.269 43.1399 30.488 42.4288 28.8631H41.4804L35.1718 35.1717C34.8886 35.4756 34.5472 35.7193 34.1679 35.8883C33.7886 36.0573 33.3791 36.1482 32.9638 36.1555C32.5486 36.1628 32.1361 36.0865 31.7511 35.9309C31.366 35.7754 31.0162 35.5439 30.7226 35.2502C30.4289 34.9566 30.1974 34.6068 30.0419 34.2217C29.8863 33.8366 29.8099 33.4242 29.8173 33.009C29.8246 32.5937 29.9155 32.1842 30.0845 31.8049C30.2535 31.4256 30.4972 31.0841 30.8011 30.801L37.1097 24.4924V15.4623C37.1097 14.6418 37.4355 13.8543 38.0168 13.277L50.3867 0.907089ZM62.3979 26.8138C62.8019 26.7715 63.2102 26.8092 63.5996 26.9248C63.989 27.0403 64.3518 27.2315 64.6673 27.4872C64.9828 27.743 65.2448 28.0584 65.4384 28.4155C65.632 28.7725 65.7533 29.1642 65.7955 29.5682L59.6436 30.2073C59.5594 29.3921 59.8021 28.5769 60.3186 27.9406C60.835 27.3043 61.5829 26.8991 62.3979 26.8138ZM43.2947 16.7447V22.6781H49.2322L55.4172 16.4932H49.4796V10.5556L43.2947 16.7447Z" fill="#1E5A4F"/>
</g>
<defs>
<clipPath id="clip0_1470_441">
<rect width="65.9728" height="65.9728" fill="white"/>
</clipPath>
</defs>
</svg>
