<svg width="419" height="186" viewBox="0 0 419 186" fill="none" xmlns="http://www.w3.org/2000/svg">
<rect x="29" width="390" height="186" rx="10" fill="#F9F9F9" fill-opacity="0.02"/>
<rect x="29.5" y="0.5" width="389" height="185" rx="9.5" stroke="#2E2E2E" stroke-opacity="0.25"/>
<path d="M94 11L99.6129 28.2746H117.776L103.082 38.9508L108.695 56.2254L94 45.5491L79.3054 56.2254L84.9182 38.9508L70.2236 28.2746H88.3871L94 11Z" fill="#F4B942"/>
<path d="M144 12L149.613 29.2746H167.776L153.082 39.9508L158.695 57.2254L144 46.5491L129.305 57.2254L134.918 39.9508L120.224 29.2746H138.387L144 12Z" fill="#F4B942"/>
<path d="M194 13L199.613 30.2746H217.776L203.082 40.9508L208.695 58.2254L194 47.5491L179.305 58.2254L184.918 40.9508L170.224 30.2746H188.387L194 13Z" fill="#F4B942"/>
<path d="M244 14L249.613 31.2746H267.776L253.082 41.9508L258.695 59.2254L244 48.5491L229.305 59.2254L234.918 41.9508L220.224 31.2746H238.387L244 14Z" fill="#F4B942"/>
<path d="M294 15L299.613 32.2746H317.776L303.082 42.9508L308.695 60.2254L294 49.5491L279.305 60.2254L284.918 42.9508L270.224 32.2746H288.387L294 15Z" fill="#F4B942"/>
<path d="M72.28 92V80.48H73.704V92H72.28ZM80.1315 92V82.888C80.1315 82.664 80.1422 82.4373 80.1635 82.208C80.1848 81.9733 80.2328 81.7467 80.3075 81.528C80.3822 81.304 80.5048 81.0987 80.6755 80.912C80.8728 80.6933 81.0888 80.5387 81.3235 80.448C81.5582 80.352 81.7955 80.2933 82.0355 80.272C82.2808 80.2507 82.5128 80.24 82.7315 80.24H83.8275V81.424H82.8115C82.3902 81.424 82.0755 81.528 81.8675 81.736C81.6595 81.9387 81.5555 82.248 81.5555 82.664V92H80.1315ZM78.6675 84.536V83.36H83.8275V84.536H78.6675ZM88.4719 92.24C87.6132 92.24 86.8719 92.0453 86.2479 91.656C85.6292 91.2667 85.1519 90.728 84.8159 90.04C84.4799 89.352 84.3119 88.5627 84.3119 87.672C84.3119 86.7653 84.4825 85.9707 84.8239 85.288C85.1652 84.6053 85.6479 84.0747 86.2719 83.696C86.8959 83.312 87.6292 83.12 88.4719 83.12C89.3359 83.12 90.0799 83.3147 90.7039 83.704C91.3279 84.088 91.8052 84.624 92.1359 85.312C92.4719 85.9947 92.6399 86.7813 92.6399 87.672C92.6399 88.5733 92.4719 89.368 92.1359 90.056C91.7999 90.7387 91.3199 91.2747 90.6959 91.664C90.0719 92.048 89.3305 92.24 88.4719 92.24ZM88.4719 90.888C89.3679 90.888 90.0345 90.5893 90.4719 89.992C90.9092 89.3947 91.1279 88.6213 91.1279 87.672C91.1279 86.696 90.9065 85.92 90.4639 85.344C90.0212 84.7627 89.3572 84.472 88.4719 84.472C87.8692 84.472 87.3732 84.608 86.9839 84.88C86.5945 85.152 86.3039 85.528 86.1119 86.008C85.9199 86.488 85.8239 87.0427 85.8239 87.672C85.8239 88.6427 86.0479 89.4213 86.4959 90.008C86.9439 90.5947 87.6025 90.888 88.4719 90.888ZM97.6813 92.224C97.1266 92.224 96.6493 92.136 96.2493 91.96C95.8546 91.784 95.5266 91.5493 95.2653 91.256C95.0039 90.9627 94.7986 90.6373 94.6493 90.28C94.4999 89.9227 94.3933 89.5573 94.3293 89.184C94.2706 88.8107 94.2413 88.4613 94.2413 88.136V83.36H95.6813V87.688C95.6813 88.0933 95.7186 88.4853 95.7933 88.864C95.8679 89.2427 95.9933 89.584 96.1693 89.888C96.3506 90.192 96.5906 90.432 96.8893 90.608C97.1933 90.784 97.5719 90.872 98.0253 90.872C98.3826 90.872 98.7079 90.8107 99.0013 90.688C99.2946 90.5653 99.5453 90.384 99.7533 90.144C99.9613 89.8987 100.121 89.5893 100.233 89.216C100.345 88.8427 100.401 88.408 100.401 87.912L101.337 88.2C101.337 89.032 101.185 89.7493 100.881 90.352C100.583 90.9547 100.159 91.4187 99.6093 91.744C99.0653 92.064 98.4226 92.224 97.6813 92.224ZM100.561 92V89.688H100.401V83.36H101.833V92H100.561ZM110.225 92V87.672C110.225 87.2613 110.188 86.8667 110.113 86.488C110.044 86.1093 109.918 85.7707 109.737 85.472C109.561 85.168 109.321 84.928 109.017 84.752C108.718 84.576 108.34 84.488 107.881 84.488C107.524 84.488 107.198 84.5493 106.905 84.672C106.617 84.7893 106.369 84.9707 106.161 85.216C105.953 85.4613 105.79 85.7707 105.673 86.144C105.561 86.512 105.505 86.9467 105.505 87.448L104.569 87.16C104.569 86.3227 104.718 85.6053 105.017 85.008C105.321 84.4053 105.745 83.944 106.289 83.624C106.838 83.2987 107.484 83.136 108.225 83.136C108.785 83.136 109.262 83.224 109.657 83.4C110.052 83.576 110.38 83.8107 110.641 84.104C110.902 84.392 111.108 84.7173 111.257 85.08C111.406 85.4373 111.51 85.8027 111.569 86.176C111.633 86.544 111.665 86.8933 111.665 87.224V92H110.225ZM104.065 92V83.36H105.345V85.672H105.505V92H104.065ZM117.059 92.24C116.254 92.24 115.563 92.04 114.987 91.64C114.411 91.2347 113.966 90.688 113.651 90C113.342 89.312 113.187 88.536 113.187 87.672C113.187 86.808 113.342 86.032 113.651 85.344C113.966 84.656 114.411 84.1147 114.987 83.72C115.563 83.32 116.251 83.12 117.051 83.12C117.867 83.12 118.552 83.3173 119.107 83.712C119.662 84.1067 120.08 84.648 120.363 85.336C120.651 86.024 120.795 86.8027 120.795 87.672C120.795 88.5307 120.651 89.3067 120.363 90C120.08 90.688 119.662 91.2347 119.107 91.64C118.552 92.04 117.87 92.24 117.059 92.24ZM117.235 90.936C117.816 90.936 118.294 90.7973 118.667 90.52C119.04 90.2373 119.315 89.8507 119.491 89.36C119.672 88.864 119.763 88.3013 119.763 87.672C119.763 87.032 119.672 86.4693 119.491 85.984C119.315 85.4933 119.043 85.112 118.675 84.84C118.307 84.5627 117.84 84.424 117.275 84.424C116.688 84.424 116.203 84.568 115.819 84.856C115.44 85.144 115.158 85.5333 114.971 86.024C114.79 86.5147 114.699 87.064 114.699 87.672C114.699 88.2853 114.792 88.84 114.979 89.336C115.166 89.8267 115.446 90.216 115.819 90.504C116.198 90.792 116.67 90.936 117.235 90.936ZM119.763 92V85.64H119.603V80.48H121.035V92H119.763ZM136.807 92L136.815 86.472C136.815 85.8267 136.642 85.3227 136.295 84.96C135.954 84.592 135.509 84.408 134.959 84.408C134.639 84.408 134.335 84.4827 134.047 84.632C133.759 84.776 133.525 85.0053 133.343 85.32C133.162 85.6293 133.071 86.0267 133.071 86.512L132.319 86.208C132.309 85.5947 132.434 85.0587 132.695 84.6C132.962 84.136 133.325 83.776 133.783 83.52C134.242 83.264 134.759 83.136 135.335 83.136C136.237 83.136 136.946 83.4107 137.463 83.96C137.981 84.504 138.239 85.2373 138.239 86.16L138.231 92H136.807ZM126.471 92V83.36H127.743V85.672H127.903V92H126.471ZM131.647 92L131.655 86.528C131.655 85.8667 131.485 85.3493 131.143 84.976C130.802 84.5973 130.349 84.408 129.783 84.408C129.223 84.408 128.77 84.6 128.423 84.984C128.077 85.368 127.903 85.8773 127.903 86.512L127.151 86.064C127.151 85.504 127.285 85.0027 127.551 84.56C127.818 84.1173 128.181 83.7707 128.639 83.52C129.098 83.264 129.618 83.136 130.199 83.136C130.781 83.136 131.287 83.2587 131.719 83.504C132.151 83.7493 132.485 84.1013 132.719 84.56C132.954 85.0133 133.071 85.5547 133.071 86.184L133.063 92H131.647ZM141.211 95.84L142.883 91.296L142.907 92.64L139.131 83.36H140.627L143.587 90.824H143.075L145.851 83.36H147.299L142.595 95.84H141.211ZM155.215 92.24C154.41 92.24 153.719 92.04 153.143 91.64C152.567 91.2347 152.122 90.688 151.807 90C151.498 89.312 151.343 88.536 151.343 87.672C151.343 86.808 151.498 86.032 151.807 85.344C152.122 84.656 152.567 84.1147 153.143 83.72C153.719 83.32 154.407 83.12 155.207 83.12C156.023 83.12 156.708 83.3173 157.263 83.712C157.818 84.1067 158.236 84.648 158.519 85.336C158.807 86.024 158.951 86.8027 158.951 87.672C158.951 88.5307 158.807 89.3067 158.519 90C158.236 90.688 157.818 91.2347 157.263 91.64C156.708 92.04 156.026 92.24 155.215 92.24ZM155.391 90.936C155.972 90.936 156.45 90.7973 156.823 90.52C157.196 90.2373 157.471 89.8507 157.647 89.36C157.828 88.864 157.919 88.3013 157.919 87.672C157.919 87.032 157.828 86.4693 157.647 85.984C157.471 85.4933 157.199 85.112 156.831 84.84C156.463 84.5627 155.996 84.424 155.431 84.424C154.844 84.424 154.359 84.568 153.975 84.856C153.596 85.144 153.314 85.5333 153.127 86.024C152.946 86.5147 152.855 87.064 152.855 87.672C152.855 88.2853 152.948 88.84 153.135 89.336C153.322 89.8267 153.602 90.216 153.975 90.504C154.354 90.792 154.826 90.936 155.391 90.936ZM157.919 92V85.64H157.759V80.48H159.191V92H157.919ZM161.433 92V83.36H162.705V85.448L162.497 85.176C162.598 84.9093 162.729 84.664 162.889 84.44C163.054 84.216 163.238 84.032 163.441 83.888C163.665 83.7067 163.918 83.568 164.201 83.472C164.483 83.376 164.771 83.32 165.065 83.304C165.358 83.2827 165.633 83.3013 165.889 83.36V84.696C165.59 84.616 165.262 84.5947 164.905 84.632C164.547 84.6693 164.217 84.8 163.913 85.024C163.635 85.2213 163.419 85.4613 163.265 85.744C163.115 86.0267 163.011 86.3333 162.953 86.664C162.894 86.9893 162.865 87.3227 162.865 87.664V92H161.433ZM170.989 92.24C170.141 92.24 169.4 92.0533 168.765 91.68C168.136 91.3013 167.645 90.776 167.293 90.104C166.941 89.4267 166.765 88.6373 166.765 87.736C166.765 86.792 166.938 85.976 167.285 85.288C167.632 84.5947 168.114 84.0613 168.733 83.688C169.357 83.3093 170.088 83.12 170.925 83.12C171.794 83.12 172.533 83.32 173.141 83.72C173.754 84.12 174.213 84.6907 174.517 85.432C174.826 86.1733 174.96 87.056 174.917 88.08H173.477V87.568C173.461 86.5067 173.245 85.7147 172.829 85.192C172.413 84.664 171.794 84.4 170.973 84.4C170.093 84.4 169.424 84.6827 168.965 85.248C168.506 85.8133 168.277 86.624 168.277 87.68C168.277 88.6987 168.506 89.488 168.965 90.048C169.424 90.608 170.077 90.888 170.925 90.888C171.496 90.888 171.992 90.7573 172.413 90.496C172.834 90.2347 173.165 89.8587 173.405 89.368L174.773 89.84C174.437 90.6027 173.93 91.1947 173.253 91.616C172.581 92.032 171.826 92.24 170.989 92.24ZM167.797 88.08V86.936H174.181V88.08H167.797ZM178.998 92.24C178.353 92.24 177.811 92.1227 177.374 91.888C176.942 91.648 176.614 91.3333 176.39 90.944C176.171 90.5547 176.062 90.128 176.062 89.664C176.062 89.2107 176.147 88.8187 176.318 88.488C176.494 88.152 176.739 87.8747 177.054 87.656C177.369 87.432 177.745 87.256 178.182 87.128C178.593 87.016 179.051 86.92 179.558 86.84C180.07 86.7547 180.587 86.6773 181.11 86.608C181.633 86.5387 182.121 86.472 182.574 86.408L182.062 86.704C182.078 85.936 181.923 85.368 181.598 85C181.278 84.632 180.723 84.448 179.934 84.448C179.411 84.448 178.953 84.568 178.558 84.808C178.169 85.0427 177.894 85.4267 177.734 85.96L176.382 85.552C176.59 84.7947 176.993 84.2 177.59 83.768C178.187 83.336 178.974 83.12 179.95 83.12C180.734 83.12 181.406 83.2613 181.966 83.544C182.531 83.8213 182.937 84.2427 183.182 84.808C183.305 85.0747 183.382 85.3653 183.414 85.68C183.446 85.9893 183.462 86.3147 183.462 86.656V92H182.198V89.928L182.494 90.12C182.169 90.8187 181.713 91.3467 181.126 91.704C180.545 92.0613 179.835 92.24 178.998 92.24ZM179.214 91.048C179.726 91.048 180.169 90.9573 180.542 90.776C180.921 90.5893 181.225 90.3467 181.454 90.048C181.683 89.744 181.833 89.4133 181.902 89.056C181.982 88.7893 182.025 88.4933 182.03 88.168C182.041 87.8373 182.046 87.584 182.046 87.408L182.542 87.624C182.078 87.688 181.622 87.7493 181.174 87.808C180.726 87.8667 180.302 87.9307 179.902 88C179.502 88.064 179.142 88.1413 178.822 88.232C178.587 88.3067 178.366 88.4027 178.158 88.52C177.955 88.6373 177.79 88.7893 177.662 88.976C177.539 89.1573 177.478 89.384 177.478 89.656C177.478 89.8907 177.537 90.1147 177.654 90.328C177.777 90.5413 177.963 90.7147 178.214 90.848C178.47 90.9813 178.803 91.048 179.214 91.048ZM195.87 92L195.878 86.472C195.878 85.8267 195.705 85.3227 195.358 84.96C195.017 84.592 194.571 84.408 194.022 84.408C193.702 84.408 193.398 84.4827 193.11 84.632C192.822 84.776 192.587 85.0053 192.406 85.32C192.225 85.6293 192.134 86.0267 192.134 86.512L191.382 86.208C191.371 85.5947 191.497 85.0587 191.758 84.6C192.025 84.136 192.387 83.776 192.846 83.52C193.305 83.264 193.822 83.136 194.398 83.136C195.299 83.136 196.009 83.4107 196.526 83.96C197.043 84.504 197.302 85.2373 197.302 86.16L197.294 92H195.87ZM185.534 92V83.36H186.806V85.672H186.966V92H185.534ZM190.71 92L190.718 86.528C190.718 85.8667 190.547 85.3493 190.206 84.976C189.865 84.5973 189.411 84.408 188.846 84.408C188.286 84.408 187.833 84.6 187.486 84.984C187.139 85.368 186.966 85.8773 186.966 86.512L186.214 86.064C186.214 85.504 186.347 85.0027 186.614 84.56C186.881 84.1173 187.243 83.7707 187.702 83.52C188.161 83.264 188.681 83.136 189.262 83.136C189.843 83.136 190.35 83.2587 190.782 83.504C191.214 83.7493 191.547 84.1013 191.782 84.56C192.017 85.0133 192.134 85.5547 192.134 86.184L192.126 92H190.71ZM205.045 92.24C204.399 92.24 203.858 92.1227 203.421 91.888C202.989 91.648 202.661 91.3333 202.437 90.944C202.218 90.5547 202.109 90.128 202.109 89.664C202.109 89.2107 202.194 88.8187 202.365 88.488C202.541 88.152 202.786 87.8747 203.101 87.656C203.415 87.432 203.791 87.256 204.229 87.128C204.639 87.016 205.098 86.92 205.605 86.84C206.117 86.7547 206.634 86.6773 207.157 86.608C207.679 86.5387 208.167 86.472 208.621 86.408L208.109 86.704C208.125 85.936 207.97 85.368 207.645 85C207.325 84.632 206.77 84.448 205.981 84.448C205.458 84.448 204.999 84.568 204.605 84.808C204.215 85.0427 203.941 85.4267 203.781 85.96L202.429 85.552C202.637 84.7947 203.039 84.2 203.637 83.768C204.234 83.336 205.021 83.12 205.997 83.12C206.781 83.12 207.453 83.2613 208.013 83.544C208.578 83.8213 208.983 84.2427 209.229 84.808C209.351 85.0747 209.429 85.3653 209.461 85.68C209.493 85.9893 209.509 86.3147 209.509 86.656V92H208.245V89.928L208.541 90.12C208.215 90.8187 207.759 91.3467 207.173 91.704C206.591 92.0613 205.882 92.24 205.045 92.24ZM205.261 91.048C205.773 91.048 206.215 90.9573 206.589 90.776C206.967 90.5893 207.271 90.3467 207.501 90.048C207.73 89.744 207.879 89.4133 207.949 89.056C208.029 88.7893 208.071 88.4933 208.077 88.168C208.087 87.8373 208.093 87.584 208.093 87.408L208.589 87.624C208.125 87.688 207.669 87.7493 207.221 87.808C206.773 87.8667 206.349 87.9307 205.949 88C205.549 88.064 205.189 88.1413 204.869 88.232C204.634 88.3067 204.413 88.4027 204.205 88.52C204.002 88.6373 203.837 88.7893 203.709 88.976C203.586 89.1573 203.525 89.384 203.525 89.656C203.525 89.8907 203.583 90.1147 203.701 90.328C203.823 90.5413 204.01 90.7147 204.261 90.848C204.517 90.9813 204.85 91.048 205.261 91.048ZM215.557 92.24C214.746 92.24 214.063 92.04 213.509 91.64C212.954 91.2347 212.533 90.688 212.245 90C211.962 89.3067 211.821 88.5307 211.821 87.672C211.821 86.8027 211.962 86.024 212.245 85.336C212.533 84.648 212.954 84.1067 213.509 83.712C214.069 83.3173 214.754 83.12 215.565 83.12C216.365 83.12 217.053 83.32 217.629 83.72C218.21 84.1147 218.655 84.656 218.965 85.344C219.274 86.032 219.429 86.808 219.429 87.672C219.429 88.536 219.274 89.312 218.965 90C218.655 90.688 218.21 91.2347 217.629 91.64C217.053 92.04 216.362 92.24 215.557 92.24ZM211.581 95.84V83.36H212.853V89.72H213.013V95.84H211.581ZM215.381 90.936C215.951 90.936 216.423 90.792 216.797 90.504C217.17 90.216 217.45 89.8267 217.637 89.336C217.823 88.84 217.917 88.2853 217.917 87.672C217.917 87.064 217.823 86.5147 217.637 86.024C217.455 85.5333 217.173 85.144 216.789 84.856C216.41 84.568 215.927 84.424 215.341 84.424C214.781 84.424 214.317 84.5627 213.949 84.84C213.581 85.112 213.306 85.4933 213.125 85.984C212.943 86.4693 212.853 87.032 212.853 87.672C212.853 88.3013 212.941 88.864 213.117 89.36C213.298 89.8507 213.575 90.2373 213.949 90.52C214.322 90.7973 214.799 90.936 215.381 90.936ZM223.639 92.24C222.993 92.24 222.452 92.1227 222.015 91.888C221.583 91.648 221.255 91.3333 221.031 90.944C220.812 90.5547 220.703 90.128 220.703 89.664C220.703 89.2107 220.788 88.8187 220.959 88.488C221.135 88.152 221.38 87.8747 221.695 87.656C222.009 87.432 222.385 87.256 222.823 87.128C223.233 87.016 223.692 86.92 224.199 86.84C224.711 86.7547 225.228 86.6773 225.751 86.608C226.273 86.5387 226.761 86.472 227.215 86.408L226.703 86.704C226.719 85.936 226.564 85.368 226.239 85C225.919 84.632 225.364 84.448 224.575 84.448C224.052 84.448 223.593 84.568 223.199 84.808C222.809 85.0427 222.535 85.4267 222.375 85.96L221.023 85.552C221.231 84.7947 221.633 84.2 222.231 83.768C222.828 83.336 223.615 83.12 224.591 83.12C225.375 83.12 226.047 83.2613 226.607 83.544C227.172 83.8213 227.577 84.2427 227.823 84.808C227.945 85.0747 228.023 85.3653 228.055 85.68C228.087 85.9893 228.102 86.3147 228.102 86.656V92H226.839V89.928L227.135 90.12C226.809 90.8187 226.353 91.3467 225.767 91.704C225.185 92.0613 224.476 92.24 223.639 92.24ZM223.855 91.048C224.367 91.048 224.809 90.9573 225.183 90.776C225.561 90.5893 225.865 90.3467 226.095 90.048C226.324 89.744 226.473 89.4133 226.543 89.056C226.623 88.7893 226.665 88.4933 226.671 88.168C226.681 87.8373 226.687 87.584 226.687 87.408L227.183 87.624C226.719 87.688 226.263 87.7493 225.815 87.808C225.367 87.8667 224.943 87.9307 224.543 88C224.143 88.064 223.783 88.1413 223.463 88.232C223.228 88.3067 223.007 88.4027 222.799 88.52C222.596 88.6373 222.431 88.7893 222.303 88.976C222.18 89.1573 222.118 89.384 222.118 89.656C222.118 89.8907 222.177 90.1147 222.295 90.328C222.417 90.5413 222.604 90.7147 222.855 90.848C223.111 90.9813 223.444 91.048 223.855 91.048ZM230.183 92V83.36H231.455V85.448L231.247 85.176C231.348 84.9093 231.479 84.664 231.639 84.44C231.804 84.216 231.988 84.032 232.191 83.888C232.415 83.7067 232.668 83.568 232.951 83.472C233.233 83.376 233.521 83.32 233.815 83.304C234.108 83.2827 234.383 83.3013 234.639 83.36V84.696C234.34 84.616 234.012 84.5947 233.655 84.632C233.297 84.6693 232.967 84.8 232.663 85.024C232.385 85.2213 232.169 85.4613 232.015 85.744C231.865 86.0267 231.761 86.3333 231.703 86.664C231.644 86.9893 231.615 87.3227 231.615 87.664V92H230.183ZM240.975 92C240.463 92.1013 239.957 92.1413 239.455 92.12C238.959 92.104 238.517 92.0053 238.127 91.824C237.738 91.6373 237.442 91.3493 237.239 90.96C237.069 90.6187 236.975 90.2747 236.959 89.928C236.949 89.576 236.943 89.1787 236.943 88.736V80.96H238.367V88.672C238.367 89.024 238.37 89.3253 238.375 89.576C238.386 89.8267 238.442 90.0427 238.543 90.224C238.735 90.5653 239.039 90.7653 239.455 90.824C239.877 90.8827 240.383 90.8667 240.975 90.776V92ZM235.191 84.536V83.36H240.975V84.536H235.191ZM253.057 92L253.065 86.472C253.065 85.8267 252.892 85.3227 252.545 84.96C252.204 84.592 251.759 84.408 251.209 84.408C250.889 84.408 250.585 84.4827 250.297 84.632C250.009 84.776 249.775 85.0053 249.593 85.32C249.412 85.6293 249.321 86.0267 249.321 86.512L248.569 86.208C248.559 85.5947 248.684 85.0587 248.945 84.6C249.212 84.136 249.575 83.776 250.033 83.52C250.492 83.264 251.009 83.136 251.585 83.136C252.487 83.136 253.196 83.4107 253.713 83.96C254.231 84.504 254.489 85.2373 254.489 86.16L254.481 92H253.057ZM242.721 92V83.36H243.993V85.672H244.153V92H242.721ZM247.897 92L247.905 86.528C247.905 85.8667 247.735 85.3493 247.393 84.976C247.052 84.5973 246.599 84.408 246.033 84.408C245.473 84.408 245.02 84.6 244.673 84.984C244.327 85.368 244.153 85.8773 244.153 86.512L243.401 86.064C243.401 85.504 243.535 85.0027 243.801 84.56C244.068 84.1173 244.431 83.7707 244.889 83.52C245.348 83.264 245.868 83.136 246.449 83.136C247.031 83.136 247.537 83.2587 247.969 83.504C248.401 83.7493 248.735 84.1013 248.969 84.56C249.204 85.0133 249.321 85.5547 249.321 86.184L249.313 92H247.897ZM260.239 92.24C259.391 92.24 258.65 92.0533 258.015 91.68C257.386 91.3013 256.895 90.776 256.543 90.104C256.191 89.4267 256.015 88.6373 256.015 87.736C256.015 86.792 256.188 85.976 256.535 85.288C256.882 84.5947 257.364 84.0613 257.983 83.688C258.607 83.3093 259.338 83.12 260.175 83.12C261.044 83.12 261.783 83.32 262.391 83.72C263.004 84.12 263.463 84.6907 263.767 85.432C264.076 86.1733 264.21 87.056 264.167 88.08H262.727V87.568C262.711 86.5067 262.495 85.7147 262.079 85.192C261.663 84.664 261.044 84.4 260.223 84.4C259.343 84.4 258.674 84.6827 258.215 85.248C257.756 85.8133 257.527 86.624 257.527 87.68C257.527 88.6987 257.756 89.488 258.215 90.048C258.674 90.608 259.327 90.888 260.175 90.888C260.746 90.888 261.242 90.7573 261.663 90.496C262.084 90.2347 262.415 89.8587 262.655 89.368L264.023 89.84C263.687 90.6027 263.18 91.1947 262.503 91.616C261.831 92.032 261.076 92.24 260.239 92.24ZM257.047 88.08V86.936H263.431V88.08H257.047ZM271.866 92V87.672C271.866 87.2613 271.828 86.8667 271.754 86.488C271.684 86.1093 271.559 85.7707 271.378 85.472C271.202 85.168 270.962 84.928 270.658 84.752C270.359 84.576 269.98 84.488 269.522 84.488C269.164 84.488 268.839 84.5493 268.546 84.672C268.258 84.7893 268.01 84.9707 267.802 85.216C267.594 85.4613 267.431 85.7707 267.314 86.144C267.202 86.512 267.146 86.9467 267.146 87.448L266.21 87.16C266.21 86.3227 266.359 85.6053 266.658 85.008C266.962 84.4053 267.386 83.944 267.93 83.624C268.479 83.2987 269.124 83.136 269.866 83.136C270.426 83.136 270.903 83.224 271.298 83.4C271.692 83.576 272.02 83.8107 272.282 84.104C272.543 84.392 272.748 84.7173 272.898 85.08C273.047 85.4373 273.151 85.8027 273.21 86.176C273.274 86.544 273.306 86.8933 273.306 87.224V92H271.866ZM265.706 92V83.36H266.986V85.672H267.146V92H265.706ZM280.21 92C279.698 92.1013 279.191 92.1413 278.69 92.12C278.194 92.104 277.751 92.0053 277.362 91.824C276.972 91.6373 276.676 91.3493 276.474 90.96C276.303 90.6187 276.21 90.2747 276.194 89.928C276.183 89.576 276.178 89.1787 276.178 88.736V80.96H277.602V88.672C277.602 89.024 277.604 89.3253 277.61 89.576C277.62 89.8267 277.676 90.0427 277.778 90.224C277.97 90.5653 278.274 90.7653 278.69 90.824C279.111 90.8827 279.618 90.8667 280.21 90.776V92ZM274.426 84.536V83.36H280.21V84.536H274.426ZM285.327 81.832V80.36H286.751V81.832H285.327ZM285.327 92V83.36H286.751V92H285.327ZM295.303 92V87.672C295.303 87.2613 295.266 86.8667 295.191 86.488C295.122 86.1093 294.997 85.7707 294.815 85.472C294.639 85.168 294.399 84.928 294.095 84.752C293.797 84.576 293.418 84.488 292.959 84.488C292.602 84.488 292.277 84.5493 291.983 84.672C291.695 84.7893 291.447 84.9707 291.239 85.216C291.031 85.4613 290.869 85.7707 290.751 86.144C290.639 86.512 290.583 86.9467 290.583 87.448L289.647 87.16C289.647 86.3227 289.797 85.6053 290.095 85.008C290.399 84.4053 290.823 83.944 291.367 83.624C291.917 83.2987 292.562 83.136 293.303 83.136C293.863 83.136 294.341 83.224 294.735 83.4C295.13 83.576 295.458 83.8107 295.719 84.104C295.981 84.392 296.186 84.7173 296.335 85.08C296.485 85.4373 296.589 85.8027 296.647 86.176C296.711 86.544 296.743 86.8933 296.743 87.224V92H295.303ZM289.143 92V83.36H290.423V85.672H290.583V92H289.143ZM302.186 92V80.48H303.61V90.648H308.954V92H302.186ZM314.052 92.24C313.204 92.24 312.462 92.0533 311.828 91.68C311.198 91.3013 310.708 90.776 310.356 90.104C310.004 89.4267 309.828 88.6373 309.828 87.736C309.828 86.792 310.001 85.976 310.348 85.288C310.694 84.5947 311.177 84.0613 311.796 83.688C312.42 83.3093 313.15 83.12 313.988 83.12C314.857 83.12 315.596 83.32 316.204 83.72C316.817 84.12 317.276 84.6907 317.58 85.432C317.889 86.1733 318.022 87.056 317.98 88.08H316.54V87.568C316.524 86.5067 316.308 85.7147 315.892 85.192C315.476 84.664 314.857 84.4 314.036 84.4C313.156 84.4 312.486 84.6827 312.028 85.248C311.569 85.8133 311.34 86.624 311.34 87.68C311.34 88.6987 311.569 89.488 312.028 90.048C312.486 90.608 313.14 90.888 313.988 90.888C314.558 90.888 315.054 90.7573 315.476 90.496C315.897 90.2347 316.228 89.8587 316.468 89.368L317.836 89.84C317.5 90.6027 316.993 91.1947 316.316 91.616C315.644 92.032 314.889 92.24 314.052 92.24ZM310.86 88.08V86.936H317.244V88.08H310.86ZM319.753 92L319.761 80.48H321.201V87.52L324.825 83.36H326.673L322.857 87.68L327.121 92H325.129L321.201 87.84V92H319.753ZM327.909 92L327.917 80.48H329.357V87.52L332.981 83.36H334.829L331.013 87.68L335.277 92H333.285L329.357 87.84V92H327.909ZM336.233 81.832V80.36H337.657V81.832H336.233ZM336.233 92V83.36H337.657V92H336.233ZM345.101 92L342.461 83.352L343.877 83.36L345.805 89.68L347.749 83.36H349.005L350.941 89.68L352.877 83.36H354.285L351.645 92H350.461L348.373 85.432L346.285 92H345.101ZM355.889 81.832V80.36H357.313V81.832H355.889ZM355.889 92V83.36H357.313V92H355.889ZM364.538 92C364.026 92.1013 363.519 92.1413 363.018 92.12C362.522 92.104 362.079 92.0053 361.69 91.824C361.3 91.6373 361.004 91.3493 360.802 90.96C360.631 90.6187 360.538 90.2747 360.522 89.928C360.511 89.576 360.506 89.1787 360.506 88.736V80.96H361.93V88.672C361.93 89.024 361.932 89.3253 361.938 89.576C361.948 89.8267 362.004 90.0427 362.106 90.224C362.298 90.5653 362.602 90.7653 363.018 90.824C363.439 90.8827 363.946 90.8667 364.538 90.776V92ZM358.754 84.536V83.36H364.538V84.536H358.754ZM372.444 92V87.672C372.444 87.2613 372.407 86.8667 372.332 86.488C372.263 86.1093 372.137 85.7707 371.956 85.472C371.78 85.168 371.54 84.928 371.236 84.752C370.937 84.576 370.559 84.488 370.1 84.488C369.743 84.488 369.417 84.5493 369.124 84.672C368.836 84.7893 368.588 84.9707 368.38 85.216C368.172 85.4613 368.009 85.7707 367.892 86.144C367.78 86.512 367.724 86.9467 367.724 87.448L366.788 87.16C366.788 86.3227 366.937 85.6053 367.236 85.008C367.54 84.4053 367.964 83.944 368.508 83.624C369.057 83.2987 369.703 83.136 370.444 83.136C371.004 83.136 371.481 83.224 371.876 83.4C372.271 83.576 372.599 83.8107 372.86 84.104C373.121 84.392 373.327 84.7173 373.476 85.08C373.625 85.4373 373.729 85.8027 373.788 86.176C373.852 86.544 373.884 86.8933 373.884 87.224V92H372.444ZM366.284 92V80.48H367.564V86.84H367.724V92H366.284ZM376.124 81.832V80.36H377.548V81.832H376.124ZM376.124 92V83.36H377.548V92H376.124ZM386.1 92V87.672C386.1 87.2613 386.063 86.8667 385.988 86.488C385.919 86.1093 385.793 85.7707 385.612 85.472C385.436 85.168 385.196 84.928 384.892 84.752C384.593 84.576 384.215 84.488 383.756 84.488C383.399 84.488 383.073 84.5493 382.78 84.672C382.492 84.7893 382.244 84.9707 382.036 85.216C381.828 85.4613 381.665 85.7707 381.548 86.144C381.436 86.512 381.38 86.9467 381.38 87.448L380.444 87.16C380.444 86.3227 380.593 85.6053 380.892 85.008C381.196 84.4053 381.62 83.944 382.164 83.624C382.713 83.2987 383.359 83.136 384.1 83.136C384.66 83.136 385.137 83.224 385.532 83.4C385.927 83.576 386.255 83.8107 386.516 84.104C386.777 84.392 386.983 84.7173 387.132 85.08C387.281 85.4373 387.385 85.8027 387.444 86.176C387.508 86.544 387.54 86.8933 387.54 87.224V92H386.1ZM379.94 92V83.36H381.22V85.672H381.38V92H379.94ZM77.7791 114.24C77.1338 114.24 76.5925 114.123 76.1551 113.888C75.7231 113.648 75.3951 113.333 75.1711 112.944C74.9525 112.555 74.8431 112.128 74.8431 111.664C74.8431 111.211 74.9285 110.819 75.0991 110.488C75.2751 110.152 75.5205 109.875 75.8351 109.656C76.1498 109.432 76.5258 109.256 76.9631 109.128C77.3738 109.016 77.8325 108.92 78.3391 108.84C78.8511 108.755 79.3685 108.677 79.8911 108.608C80.4138 108.539 80.9018 108.472 81.3551 108.408L80.8431 108.704C80.8591 107.936 80.7045 107.368 80.3791 107C80.0591 106.632 79.5045 106.448 78.7151 106.448C78.1925 106.448 77.7338 106.568 77.3391 106.808C76.9498 107.043 76.6751 107.427 76.5151 107.96L75.1631 107.552C75.3711 106.795 75.7738 106.2 76.3711 105.768C76.9685 105.336 77.7551 105.12 78.7311 105.12C79.5151 105.12 80.1871 105.261 80.7471 105.544C81.3125 105.821 81.7178 106.243 81.9631 106.808C82.0858 107.075 82.1631 107.365 82.1951 107.68C82.2271 107.989 82.2431 108.315 82.2431 108.656V114H80.9791V111.928L81.2751 112.12C80.9498 112.819 80.4938 113.347 79.9071 113.704C79.3258 114.061 78.6165 114.24 77.7791 114.24ZM77.9951 113.048C78.5071 113.048 78.9498 112.957 79.3231 112.776C79.7018 112.589 80.0058 112.347 80.2351 112.048C80.4645 111.744 80.6138 111.413 80.6831 111.056C80.7631 110.789 80.8058 110.493 80.8111 110.168C80.8218 109.837 80.8271 109.584 80.8271 109.408L81.3231 109.624C80.8591 109.688 80.4031 109.749 79.9551 109.808C79.5071 109.867 79.0831 109.931 78.6831 110C78.2831 110.064 77.9231 110.141 77.6031 110.232C77.3685 110.307 77.1471 110.403 76.9391 110.52C76.7365 110.637 76.5711 110.789 76.4431 110.976C76.3205 111.157 76.2591 111.384 76.2591 111.656C76.2591 111.891 76.3178 112.115 76.4351 112.328C76.5578 112.541 76.7445 112.715 76.9951 112.848C77.2511 112.981 77.5845 113.048 77.9951 113.048ZM89.3663 114L86.7263 105.352L88.1423 105.36L90.0703 111.68L92.0143 105.36H93.2703L95.2063 111.68L97.1423 105.36H98.5503L95.9103 114H94.7263L92.6383 107.432L90.5503 114H89.3663ZM103.427 114.24C102.579 114.24 101.837 114.053 101.203 113.68C100.573 113.301 100.083 112.776 99.7305 112.104C99.3785 111.427 99.2025 110.637 99.2025 109.736C99.2025 108.792 99.3758 107.976 99.7225 107.288C100.069 106.595 100.552 106.061 101.171 105.688C101.795 105.309 102.525 105.12 103.363 105.12C104.232 105.12 104.971 105.32 105.579 105.72C106.192 106.12 106.651 106.691 106.955 107.432C107.264 108.173 107.397 109.056 107.355 110.08H105.915V109.568C105.899 108.507 105.683 107.715 105.267 107.192C104.851 106.664 104.232 106.4 103.411 106.4C102.531 106.4 101.861 106.683 101.403 107.248C100.944 107.813 100.715 108.624 100.715 109.68C100.715 110.699 100.944 111.488 101.403 112.048C101.861 112.608 102.515 112.888 103.363 112.888C103.933 112.888 104.429 112.757 104.851 112.496C105.272 112.235 105.603 111.859 105.843 111.368L107.211 111.84C106.875 112.603 106.368 113.195 105.691 113.616C105.019 114.032 104.264 114.24 103.427 114.24ZM100.235 110.08V108.936H106.619V110.08H100.235ZM112.88 114.24C112.032 114.24 111.29 114.053 110.656 113.68C110.026 113.301 109.536 112.776 109.184 112.104C108.832 111.427 108.656 110.637 108.656 109.736C108.656 108.792 108.829 107.976 109.176 107.288C109.522 106.595 110.005 106.061 110.624 105.688C111.248 105.309 111.978 105.12 112.816 105.12C113.685 105.12 114.424 105.32 115.032 105.72C115.645 106.12 116.104 106.691 116.408 107.432C116.717 108.173 116.85 109.056 116.808 110.08H115.368V109.568C115.352 108.507 115.136 107.715 114.72 107.192C114.304 106.664 113.685 106.4 112.864 106.4C111.984 106.4 111.314 106.683 110.856 107.248C110.397 107.813 110.168 108.624 110.168 109.68C110.168 110.699 110.397 111.488 110.856 112.048C111.314 112.608 111.968 112.888 112.816 112.888C113.386 112.888 113.882 112.757 114.304 112.496C114.725 112.235 115.056 111.859 115.296 111.368L116.664 111.84C116.328 112.603 115.821 113.195 115.144 113.616C114.472 114.032 113.717 114.24 112.88 114.24ZM109.688 110.08V108.936H116.072V110.08H109.688ZM118.581 114L118.589 102.48H120.029V109.52L123.653 105.36H125.501L121.685 109.68L125.949 114H123.957L120.029 109.84V114H118.581ZM126.585 115.792L126.673 115.128C126.897 115.144 127.065 115.101 127.177 115C127.289 114.899 127.361 114.76 127.393 114.584C127.425 114.408 127.43 114.213 127.409 114H126.585V112.192H128.153V114.24C128.153 114.8 128.014 115.221 127.737 115.504C127.465 115.787 127.081 115.883 126.585 115.792ZM134.401 114V102.48H135.841L141.849 111.48V102.48H143.289V114H141.849L135.841 104.992V114H134.401ZM149.206 114.24C148.348 114.24 147.606 114.045 146.982 113.656C146.364 113.267 145.886 112.728 145.55 112.04C145.214 111.352 145.046 110.563 145.046 109.672C145.046 108.765 145.217 107.971 145.558 107.288C145.9 106.605 146.382 106.075 147.006 105.696C147.63 105.312 148.364 105.12 149.206 105.12C150.07 105.12 150.814 105.315 151.438 105.704C152.062 106.088 152.54 106.624 152.87 107.312C153.206 107.995 153.374 108.781 153.374 109.672C153.374 110.573 153.206 111.368 152.87 112.056C152.534 112.739 152.054 113.275 151.43 113.664C150.806 114.048 150.065 114.24 149.206 114.24ZM149.206 112.888C150.102 112.888 150.769 112.589 151.206 111.992C151.644 111.395 151.862 110.621 151.862 109.672C151.862 108.696 151.641 107.92 151.198 107.344C150.756 106.763 150.092 106.472 149.206 106.472C148.604 106.472 148.108 106.608 147.718 106.88C147.329 107.152 147.038 107.528 146.846 108.008C146.654 108.488 146.558 109.043 146.558 109.672C146.558 110.643 146.782 111.421 147.23 112.008C147.678 112.595 148.337 112.888 149.206 112.888ZM160.795 114.24C160.149 114.24 159.608 114.123 159.171 113.888C158.739 113.648 158.411 113.333 158.187 112.944C157.968 112.555 157.859 112.128 157.859 111.664C157.859 111.211 157.944 110.819 158.115 110.488C158.291 110.152 158.536 109.875 158.851 109.656C159.165 109.432 159.541 109.256 159.979 109.128C160.389 109.016 160.848 108.92 161.355 108.84C161.867 108.755 162.384 108.677 162.907 108.608C163.429 108.539 163.917 108.472 164.371 108.408L163.859 108.704C163.875 107.936 163.72 107.368 163.395 107C163.075 106.632 162.52 106.448 161.731 106.448C161.208 106.448 160.749 106.568 160.355 106.808C159.965 107.043 159.691 107.427 159.531 107.96L158.179 107.552C158.387 106.795 158.789 106.2 159.387 105.768C159.984 105.336 160.771 105.12 161.747 105.12C162.531 105.12 163.203 105.261 163.763 105.544C164.328 105.821 164.733 106.243 164.979 106.808C165.101 107.075 165.179 107.365 165.211 107.68C165.243 107.989 165.259 108.315 165.259 108.656V114H163.995V111.928L164.291 112.12C163.965 112.819 163.509 113.347 162.923 113.704C162.341 114.061 161.632 114.24 160.795 114.24ZM161.011 113.048C161.523 113.048 161.965 112.957 162.339 112.776C162.717 112.589 163.021 112.347 163.251 112.048C163.48 111.744 163.629 111.413 163.699 111.056C163.779 110.789 163.821 110.493 163.827 110.168C163.837 109.837 163.843 109.584 163.843 109.408L164.339 109.624C163.875 109.688 163.419 109.749 162.971 109.808C162.523 109.867 162.099 109.931 161.699 110C161.299 110.064 160.939 110.141 160.619 110.232C160.384 110.307 160.163 110.403 159.955 110.52C159.752 110.637 159.587 110.789 159.459 110.976C159.336 111.157 159.275 111.384 159.275 111.656C159.275 111.891 159.333 112.115 159.451 112.328C159.573 112.541 159.76 112.715 160.011 112.848C160.267 112.981 160.6 113.048 161.011 113.048ZM170.835 118.08C170.381 118.08 169.939 118.011 169.507 117.872C169.075 117.733 168.677 117.523 168.315 117.24C167.957 116.963 167.659 116.611 167.419 116.184L168.723 115.496C168.936 115.917 169.237 116.224 169.627 116.416C170.021 116.608 170.427 116.704 170.843 116.704C171.392 116.704 171.848 116.603 172.211 116.4C172.573 116.203 172.84 115.907 173.011 115.512C173.187 115.117 173.272 114.627 173.267 114.04V111.68H173.435V105.36H174.699V114.056C174.699 114.291 174.691 114.517 174.675 114.736C174.664 114.955 174.637 115.171 174.595 115.384C174.483 115.997 174.261 116.501 173.931 116.896C173.6 117.296 173.173 117.592 172.651 117.784C172.128 117.981 171.523 118.08 170.835 118.08ZM170.731 114.24C169.925 114.24 169.235 114.04 168.659 113.64C168.083 113.235 167.637 112.688 167.323 112C167.013 111.312 166.859 110.536 166.859 109.672C166.859 108.808 167.013 108.032 167.323 107.344C167.637 106.656 168.083 106.115 168.659 105.72C169.235 105.32 169.923 105.12 170.723 105.12C171.539 105.12 172.224 105.317 172.779 105.712C173.333 106.107 173.752 106.648 174.035 107.336C174.323 108.024 174.467 108.803 174.467 109.672C174.467 110.531 174.323 111.307 174.035 112C173.752 112.688 173.333 113.235 172.779 113.64C172.224 114.04 171.541 114.24 170.731 114.24ZM170.907 112.936C171.488 112.936 171.965 112.797 172.339 112.52C172.712 112.237 172.987 111.851 173.163 111.36C173.344 110.864 173.435 110.301 173.435 109.672C173.435 109.032 173.344 108.469 173.163 107.984C172.987 107.493 172.715 107.112 172.347 106.84C171.979 106.563 171.512 106.424 170.947 106.424C170.36 106.424 169.875 106.568 169.491 106.856C169.112 107.144 168.829 107.533 168.643 108.024C168.461 108.515 168.371 109.064 168.371 109.672C168.371 110.285 168.464 110.84 168.651 111.336C168.837 111.827 169.117 112.216 169.491 112.504C169.869 112.792 170.341 112.936 170.907 112.936ZM180.677 114.24C179.829 114.24 179.087 114.053 178.453 113.68C177.823 113.301 177.333 112.776 176.981 112.104C176.629 111.427 176.453 110.637 176.453 109.736C176.453 108.792 176.626 107.976 176.973 107.288C177.319 106.595 177.802 106.061 178.421 105.688C179.045 105.309 179.775 105.12 180.613 105.12C181.482 105.12 182.221 105.32 182.829 105.72C183.442 106.12 183.901 106.691 184.205 107.432C184.514 108.173 184.647 109.056 184.605 110.08H183.165V109.568C183.149 108.507 182.933 107.715 182.517 107.192C182.101 106.664 181.482 106.4 180.661 106.4C179.781 106.4 179.111 106.683 178.653 107.248C178.194 107.813 177.965 108.624 177.965 109.68C177.965 110.699 178.194 111.488 178.653 112.048C179.111 112.608 179.765 112.888 180.613 112.888C181.183 112.888 181.679 112.757 182.101 112.496C182.522 112.235 182.853 111.859 183.093 111.368L184.461 111.84C184.125 112.603 183.618 113.195 182.941 113.616C182.269 114.032 181.514 114.24 180.677 114.24ZM177.485 110.08V108.936H183.869V110.08H177.485ZM192.303 114V109.672C192.303 109.261 192.266 108.867 192.191 108.488C192.122 108.109 191.997 107.771 191.815 107.472C191.639 107.168 191.399 106.928 191.095 106.752C190.797 106.576 190.418 106.488 189.959 106.488C189.602 106.488 189.277 106.549 188.983 106.672C188.695 106.789 188.447 106.971 188.239 107.216C188.031 107.461 187.869 107.771 187.751 108.144C187.639 108.512 187.583 108.947 187.583 109.448L186.647 109.16C186.647 108.323 186.797 107.605 187.095 107.008C187.399 106.405 187.823 105.944 188.367 105.624C188.917 105.299 189.562 105.136 190.303 105.136C190.863 105.136 191.341 105.224 191.735 105.4C192.13 105.576 192.458 105.811 192.719 106.104C192.981 106.392 193.186 106.717 193.335 107.08C193.485 107.437 193.589 107.803 193.647 108.176C193.711 108.544 193.743 108.893 193.743 109.224V114H192.303ZM186.143 114V105.36H187.423V107.672H187.583V114H186.143ZM200.647 114C200.135 114.101 199.628 114.141 199.127 114.12C198.631 114.104 198.188 114.005 197.799 113.824C197.41 113.637 197.114 113.349 196.911 112.96C196.74 112.619 196.647 112.275 196.631 111.928C196.62 111.576 196.615 111.179 196.615 110.736V102.96H198.039V110.672C198.039 111.024 198.042 111.325 198.047 111.576C198.058 111.827 198.114 112.043 198.215 112.224C198.407 112.565 198.711 112.765 199.127 112.824C199.548 112.883 200.055 112.867 200.647 112.776V114ZM194.863 106.536V105.36H200.647V106.536H194.863ZM207.444 114L204.804 105.352L206.22 105.36L208.148 111.68L210.092 105.36H211.348L213.284 111.68L215.22 105.36H216.628L213.988 114H212.804L210.716 107.432L208.628 114H207.444ZM220.045 114.24C219.399 114.24 218.858 114.123 218.421 113.888C217.989 113.648 217.661 113.333 217.437 112.944C217.218 112.555 217.109 112.128 217.109 111.664C217.109 111.211 217.194 110.819 217.365 110.488C217.541 110.152 217.786 109.875 218.101 109.656C218.415 109.432 218.791 109.256 219.229 109.128C219.639 109.016 220.098 108.92 220.605 108.84C221.117 108.755 221.634 108.677 222.157 108.608C222.679 108.539 223.167 108.472 223.621 108.408L223.109 108.704C223.125 107.936 222.97 107.368 222.645 107C222.325 106.632 221.77 106.448 220.981 106.448C220.458 106.448 219.999 106.568 219.605 106.808C219.215 107.043 218.941 107.427 218.781 107.96L217.429 107.552C217.637 106.795 218.039 106.2 218.637 105.768C219.234 105.336 220.021 105.12 220.997 105.12C221.781 105.12 222.453 105.261 223.013 105.544C223.578 105.821 223.983 106.243 224.229 106.808C224.351 107.075 224.429 107.365 224.461 107.68C224.493 107.989 224.509 108.315 224.509 108.656V114H223.245V111.928L223.541 112.12C223.215 112.819 222.759 113.347 222.173 113.704C221.591 114.061 220.882 114.24 220.045 114.24ZM220.261 113.048C220.773 113.048 221.215 112.957 221.589 112.776C221.967 112.589 222.271 112.347 222.501 112.048C222.73 111.744 222.879 111.413 222.949 111.056C223.029 110.789 223.071 110.493 223.077 110.168C223.087 109.837 223.093 109.584 223.093 109.408L223.589 109.624C223.125 109.688 222.669 109.749 222.221 109.808C221.773 109.867 221.349 109.931 220.949 110C220.549 110.064 220.189 110.141 219.869 110.232C219.634 110.307 219.413 110.403 219.205 110.52C219.002 110.637 218.837 110.789 218.709 110.976C218.586 111.157 218.525 111.384 218.525 111.656C218.525 111.891 218.583 112.115 218.701 112.328C218.823 112.541 219.01 112.715 219.261 112.848C219.517 112.981 219.85 113.048 220.261 113.048ZM232.741 114V109.672C232.741 109.261 232.703 108.867 232.629 108.488C232.559 108.109 232.434 107.771 232.253 107.472C232.077 107.168 231.837 106.928 231.533 106.752C231.234 106.576 230.855 106.488 230.397 106.488C230.039 106.488 229.714 106.549 229.421 106.672C229.133 106.789 228.885 106.971 228.677 107.216C228.469 107.461 228.306 107.771 228.189 108.144C228.077 108.512 228.021 108.947 228.021 109.448L227.085 109.16C227.085 108.323 227.234 107.605 227.533 107.008C227.837 106.405 228.261 105.944 228.805 105.624C229.354 105.299 229.999 105.136 230.741 105.136C231.301 105.136 231.778 105.224 232.173 105.4C232.567 105.576 232.895 105.811 233.157 106.104C233.418 106.392 233.623 106.717 233.773 107.08C233.922 107.437 234.026 107.803 234.085 108.176C234.149 108.544 234.181 108.893 234.181 109.224V114H232.741ZM226.581 114V102.48H227.861V108.84H228.021V114H226.581ZM238.717 114.24C238.071 114.24 237.53 114.123 237.093 113.888C236.661 113.648 236.333 113.333 236.109 112.944C235.89 112.555 235.781 112.128 235.781 111.664C235.781 111.211 235.866 110.819 236.037 110.488C236.213 110.152 236.458 109.875 236.773 109.656C237.087 109.432 237.463 109.256 237.901 109.128C238.311 109.016 238.77 108.92 239.277 108.84C239.789 108.755 240.306 108.677 240.829 108.608C241.351 108.539 241.839 108.472 242.293 108.408L241.781 108.704C241.797 107.936 241.642 107.368 241.317 107C240.997 106.632 240.442 106.448 239.653 106.448C239.13 106.448 238.671 106.568 238.277 106.808C237.887 107.043 237.613 107.427 237.453 107.96L236.101 107.552C236.309 106.795 236.711 106.2 237.309 105.768C237.906 105.336 238.693 105.12 239.669 105.12C240.453 105.12 241.125 105.261 241.685 105.544C242.25 105.821 242.655 106.243 242.901 106.808C243.023 107.075 243.101 107.365 243.133 107.68C243.165 107.989 243.181 108.315 243.181 108.656V114H241.917V111.928L242.213 112.12C241.887 112.819 241.431 113.347 240.845 113.704C240.263 114.061 239.554 114.24 238.717 114.24ZM238.933 113.048C239.445 113.048 239.887 112.957 240.261 112.776C240.639 112.589 240.943 112.347 241.173 112.048C241.402 111.744 241.551 111.413 241.621 111.056C241.701 110.789 241.743 110.493 241.749 110.168C241.759 109.837 241.765 109.584 241.765 109.408L242.261 109.624C241.797 109.688 241.341 109.749 240.893 109.808C240.445 109.867 240.021 109.931 239.621 110C239.221 110.064 238.861 110.141 238.541 110.232C238.306 110.307 238.085 110.403 237.877 110.52C237.674 110.637 237.509 110.789 237.381 110.976C237.258 111.157 237.197 111.384 237.197 111.656C237.197 111.891 237.255 112.115 237.373 112.328C237.495 112.541 237.682 112.715 237.933 112.848C238.189 112.981 238.522 113.048 238.933 113.048ZM245.421 114V102.24H246.845V114H245.421ZM251.701 114.24C251.056 114.24 250.514 114.123 250.077 113.888C249.645 113.648 249.317 113.333 249.093 112.944C248.874 112.555 248.765 112.128 248.765 111.664C248.765 111.211 248.85 110.819 249.021 110.488C249.197 110.152 249.442 109.875 249.757 109.656C250.072 109.432 250.448 109.256 250.885 109.128C251.296 109.016 251.754 108.92 252.261 108.84C252.773 108.755 253.29 108.677 253.813 108.608C254.336 108.539 254.824 108.472 255.277 108.408L254.765 108.704C254.781 107.936 254.626 107.368 254.301 107C253.981 106.632 253.426 106.448 252.637 106.448C252.114 106.448 251.656 106.568 251.261 106.808C250.872 107.043 250.597 107.427 250.437 107.96L249.085 107.552C249.293 106.795 249.696 106.2 250.293 105.768C250.89 105.336 251.677 105.12 252.653 105.12C253.437 105.12 254.109 105.261 254.669 105.544C255.234 105.821 255.64 106.243 255.885 106.808C256.008 107.075 256.085 107.365 256.117 107.68C256.149 107.989 256.165 108.315 256.165 108.656V114H254.901V111.928L255.197 112.12C254.872 112.819 254.416 113.347 253.829 113.704C253.248 114.061 252.538 114.24 251.701 114.24ZM251.917 113.048C252.429 113.048 252.872 112.957 253.245 112.776C253.624 112.589 253.928 112.347 254.157 112.048C254.386 111.744 254.536 111.413 254.605 111.056C254.685 110.789 254.728 110.493 254.733 110.168C254.744 109.837 254.749 109.584 254.749 109.408L255.245 109.624C254.781 109.688 254.325 109.749 253.877 109.808C253.429 109.867 253.005 109.931 252.605 110C252.205 110.064 251.845 110.141 251.525 110.232C251.29 110.307 251.069 110.403 250.861 110.52C250.658 110.637 250.493 110.789 250.365 110.976C250.242 111.157 250.181 111.384 250.181 111.656C250.181 111.891 250.24 112.115 250.357 112.328C250.48 112.541 250.666 112.715 250.917 112.848C251.173 112.981 251.506 113.048 251.917 113.048ZM259.045 114V112.528H260.469V114H259.045ZM259.045 111.12V102.48H260.469V111.12H259.045ZM268.794 114.232C267.988 114.232 267.306 114.013 266.746 113.576C266.186 113.139 265.802 112.552 265.594 111.816L267.01 111.48C267.095 111.869 267.3 112.2 267.626 112.472C267.956 112.744 268.335 112.88 268.762 112.88C269.039 112.88 269.322 112.813 269.61 112.68C269.898 112.541 270.119 112.317 270.274 112.008C270.38 111.795 270.442 111.56 270.458 111.304C270.474 111.043 270.482 110.736 270.482 110.384V102.48H271.922V110.384C271.922 110.715 271.919 111.011 271.914 111.272C271.914 111.533 271.887 111.784 271.834 112.024C271.786 112.259 271.69 112.499 271.546 112.744C271.258 113.251 270.871 113.627 270.386 113.872C269.906 114.112 269.375 114.232 268.794 114.232ZM277.603 114.224C277.048 114.224 276.571 114.136 276.171 113.96C275.776 113.784 275.448 113.549 275.187 113.256C274.926 112.963 274.72 112.637 274.571 112.28C274.422 111.923 274.315 111.557 274.251 111.184C274.192 110.811 274.163 110.461 274.163 110.136V105.36H275.603V109.688C275.603 110.093 275.64 110.485 275.715 110.864C275.79 111.243 275.915 111.584 276.091 111.888C276.272 112.192 276.512 112.432 276.811 112.608C277.115 112.784 277.494 112.872 277.947 112.872C278.304 112.872 278.63 112.811 278.923 112.688C279.216 112.565 279.467 112.384 279.675 112.144C279.883 111.899 280.043 111.589 280.155 111.216C280.267 110.843 280.323 110.408 280.323 109.912L281.259 110.2C281.259 111.032 281.107 111.749 280.803 112.352C280.504 112.955 280.08 113.419 279.531 113.744C278.987 114.064 278.344 114.224 277.603 114.224ZM280.483 114V111.688H280.323V105.36H281.755V114H280.483ZM287.259 114.232C286.23 114.232 285.384 114.008 284.723 113.56C284.067 113.107 283.664 112.475 283.515 111.664L284.971 111.432C285.088 111.901 285.358 112.275 285.779 112.552C286.2 112.824 286.723 112.96 287.347 112.96C287.939 112.96 288.403 112.837 288.739 112.592C289.075 112.347 289.243 112.013 289.243 111.592C289.243 111.347 289.187 111.149 289.075 111C288.963 110.845 288.731 110.701 288.379 110.568C288.032 110.435 287.507 110.275 286.803 110.088C286.04 109.885 285.44 109.675 285.003 109.456C284.566 109.237 284.254 108.984 284.067 108.696C283.88 108.408 283.787 108.059 283.787 107.648C283.787 107.141 283.926 106.699 284.203 106.32C284.48 105.936 284.867 105.64 285.363 105.432C285.864 105.224 286.446 105.12 287.107 105.12C287.763 105.12 288.35 105.224 288.867 105.432C289.384 105.64 289.8 105.936 290.115 106.32C290.435 106.699 290.624 107.141 290.683 107.648L289.227 107.912C289.158 107.448 288.934 107.083 288.555 106.816C288.182 106.549 287.699 106.408 287.107 106.392C286.547 106.371 286.091 106.469 285.739 106.688C285.392 106.907 285.219 107.203 285.219 107.576C285.219 107.784 285.283 107.963 285.411 108.112C285.544 108.261 285.787 108.403 286.139 108.536C286.496 108.669 287.014 108.821 287.691 108.992C288.454 109.184 289.054 109.395 289.491 109.624C289.934 109.848 290.248 110.115 290.435 110.424C290.622 110.728 290.715 111.104 290.715 111.552C290.715 112.384 290.408 113.04 289.795 113.52C289.182 113.995 288.336 114.232 287.259 114.232ZM297.303 114C296.791 114.101 296.285 114.141 295.783 114.12C295.287 114.104 294.845 114.005 294.455 113.824C294.066 113.637 293.77 113.349 293.567 112.96C293.397 112.619 293.303 112.275 293.287 111.928C293.277 111.576 293.271 111.179 293.271 110.736V102.96H294.695V110.672C294.695 111.024 294.698 111.325 294.703 111.576C294.714 111.827 294.77 112.043 294.871 112.224C295.063 112.565 295.367 112.765 295.783 112.824C296.205 112.883 296.711 112.867 297.303 112.776V114ZM291.519 106.536V105.36H297.303V106.536H291.519ZM305.653 114.24C304.847 114.24 304.157 114.04 303.581 113.64C303.005 113.235 302.559 112.688 302.245 112C301.935 111.312 301.781 110.536 301.781 109.672C301.781 108.808 301.935 108.032 302.245 107.344C302.559 106.656 303.005 106.115 303.581 105.72C304.157 105.32 304.845 105.12 305.645 105.12C306.461 105.12 307.146 105.317 307.701 105.712C308.255 106.107 308.674 106.648 308.957 107.336C309.245 108.024 309.389 108.803 309.389 109.672C309.389 110.531 309.245 111.307 308.957 112C308.674 112.688 308.255 113.235 307.701 113.64C307.146 114.04 306.463 114.24 305.653 114.24ZM305.829 112.936C306.41 112.936 306.887 112.797 307.261 112.52C307.634 112.237 307.909 111.851 308.085 111.36C308.266 110.864 308.357 110.301 308.357 109.672C308.357 109.032 308.266 108.469 308.085 107.984C307.909 107.493 307.637 107.112 307.269 106.84C306.901 106.563 306.434 106.424 305.869 106.424C305.282 106.424 304.797 106.568 304.413 106.856C304.034 107.144 303.751 107.533 303.565 108.024C303.383 108.515 303.293 109.064 303.293 109.672C303.293 110.285 303.386 110.84 303.573 111.336C303.759 111.827 304.039 112.216 304.413 112.504C304.791 112.792 305.263 112.936 305.829 112.936ZM308.357 114V107.64H308.197V102.48H309.629V114H308.357ZM312.03 103.832V102.36H313.454V103.832H312.03ZM312.03 114V105.36H313.454V114H312.03ZM315.854 114V105.36H317.126V107.448L316.918 107.176C317.02 106.909 317.15 106.664 317.31 106.44C317.476 106.216 317.66 106.032 317.862 105.888C318.086 105.707 318.34 105.568 318.622 105.472C318.905 105.376 319.193 105.32 319.486 105.304C319.78 105.283 320.054 105.301 320.31 105.36V106.696C320.012 106.616 319.684 106.595 319.326 106.632C318.969 106.669 318.638 106.8 318.334 107.024C318.057 107.221 317.841 107.461 317.686 107.744C317.537 108.027 317.433 108.333 317.374 108.664C317.316 108.989 317.286 109.323 317.286 109.664V114H315.854ZM325.411 114.24C324.563 114.24 323.822 114.053 323.187 113.68C322.558 113.301 322.067 112.776 321.715 112.104C321.363 111.427 321.187 110.637 321.187 109.736C321.187 108.792 321.36 107.976 321.707 107.288C322.054 106.595 322.536 106.061 323.155 105.688C323.779 105.309 324.51 105.12 325.347 105.12C326.216 105.12 326.955 105.32 327.563 105.72C328.176 106.12 328.635 106.691 328.939 107.432C329.248 108.173 329.382 109.056 329.339 110.08H327.899V109.568C327.883 108.507 327.667 107.715 327.251 107.192C326.835 106.664 326.216 106.4 325.395 106.4C324.515 106.4 323.846 106.683 323.387 107.248C322.928 107.813 322.699 108.624 322.699 109.68C322.699 110.699 322.928 111.488 323.387 112.048C323.846 112.608 324.499 112.888 325.347 112.888C325.918 112.888 326.414 112.757 326.835 112.496C327.256 112.235 327.587 111.859 327.827 111.368L329.195 111.84C328.859 112.603 328.352 113.195 327.675 113.616C327.003 114.032 326.248 114.24 325.411 114.24ZM322.219 110.08V108.936H328.603V110.08H322.219ZM334.76 114.24C333.885 114.24 333.141 114.045 332.528 113.656C331.92 113.261 331.456 112.72 331.136 112.032C330.816 111.344 330.651 110.56 330.64 109.68C330.651 108.779 330.819 107.987 331.144 107.304C331.475 106.616 331.947 106.08 332.56 105.696C333.173 105.312 333.912 105.12 334.776 105.12C335.688 105.12 336.472 105.344 337.128 105.792C337.789 106.24 338.232 106.853 338.456 107.632L337.048 108.056C336.867 107.555 336.571 107.165 336.16 106.888C335.755 106.611 335.288 106.472 334.76 106.472C334.168 106.472 333.68 106.611 333.296 106.888C332.912 107.16 332.627 107.539 332.44 108.024C332.253 108.504 332.157 109.056 332.152 109.68C332.163 110.64 332.384 111.416 332.816 112.008C333.253 112.595 333.901 112.888 334.76 112.888C335.325 112.888 335.795 112.76 336.168 112.504C336.541 112.243 336.824 111.867 337.016 111.376L338.456 111.752C338.157 112.557 337.691 113.173 337.056 113.6C336.421 114.027 335.656 114.24 334.76 114.24ZM344.913 114C344.401 114.101 343.894 114.141 343.393 114.12C342.897 114.104 342.454 114.005 342.065 113.824C341.675 113.637 341.379 113.349 341.177 112.96C341.006 112.619 340.913 112.275 340.897 111.928C340.886 111.576 340.881 111.179 340.881 110.736V102.96H342.305V110.672C342.305 111.024 342.307 111.325 342.313 111.576C342.323 111.827 342.379 112.043 342.481 112.224C342.673 112.565 342.977 112.765 343.393 112.824C343.814 112.883 344.321 112.867 344.913 112.776V114ZM339.129 106.536V105.36H344.913V106.536H339.129ZM75.76 136.24C74.8853 136.24 74.1413 136.045 73.528 135.656C72.92 135.261 72.456 134.72 72.136 134.032C71.816 133.344 71.6507 132.56 71.64 131.68C71.6507 130.779 71.8187 129.987 72.144 129.304C72.4747 128.616 72.9467 128.08 73.56 127.696C74.1733 127.312 74.912 127.12 75.776 127.12C76.688 127.12 77.472 127.344 78.128 127.792C78.7893 128.24 79.232 128.853 79.456 129.632L78.048 130.056C77.8667 129.555 77.5707 129.165 77.16 128.888C76.7547 128.611 76.288 128.472 75.76 128.472C75.168 128.472 74.68 128.611 74.296 128.888C73.912 129.16 73.6267 129.539 73.44 130.024C73.2533 130.504 73.1573 131.056 73.152 131.68C73.1627 132.64 73.384 133.416 73.816 134.008C74.2533 134.595 74.9013 134.888 75.76 134.888C76.3253 134.888 76.7947 134.76 77.168 134.504C77.5413 134.243 77.824 133.867 78.016 133.376L79.456 133.752C79.1573 134.557 78.6907 135.173 78.056 135.6C77.4213 136.027 76.656 136.24 75.76 136.24ZM84.5344 136.24C83.6757 136.24 82.9344 136.045 82.3104 135.656C81.6917 135.267 81.2144 134.728 80.8784 134.04C80.5424 133.352 80.3744 132.563 80.3744 131.672C80.3744 130.765 80.545 129.971 80.8864 129.288C81.2277 128.605 81.7104 128.075 82.3344 127.696C82.9584 127.312 83.6917 127.12 84.5344 127.12C85.3984 127.12 86.1424 127.315 86.7664 127.704C87.3904 128.088 87.8677 128.624 88.1984 129.312C88.5344 129.995 88.7024 130.781 88.7024 131.672C88.7024 132.573 88.5344 133.368 88.1984 134.056C87.8624 134.739 87.3824 135.275 86.7584 135.664C86.1344 136.048 85.393 136.24 84.5344 136.24ZM84.5344 134.888C85.4304 134.888 86.097 134.589 86.5344 133.992C86.9717 133.395 87.1904 132.621 87.1904 131.672C87.1904 130.696 86.969 129.92 86.5264 129.344C86.0837 128.763 85.4197 128.472 84.5344 128.472C83.9317 128.472 83.4357 128.608 83.0464 128.88C82.657 129.152 82.3664 129.528 82.1744 130.008C81.9824 130.488 81.8864 131.043 81.8864 131.672C81.8864 132.643 82.1104 133.421 82.5584 134.008C83.0064 134.595 83.665 134.888 84.5344 134.888ZM100.792 136L100.8 130.472C100.8 129.827 100.626 129.323 100.28 128.96C99.9384 128.592 99.4931 128.408 98.9438 128.408C98.6238 128.408 98.3198 128.483 98.0318 128.632C97.7438 128.776 97.5091 129.005 97.3278 129.32C97.1464 129.629 97.0558 130.027 97.0558 130.512L96.3038 130.208C96.2931 129.595 96.4184 129.059 96.6798 128.6C96.9464 128.136 97.3091 127.776 97.7678 127.52C98.2264 127.264 98.7438 127.136 99.3198 127.136C100.221 127.136 100.93 127.411 101.448 127.96C101.965 128.504 102.224 129.237 102.224 130.16L102.216 136H100.792ZM90.4558 136V127.36H91.7278V129.672H91.8878V136H90.4558ZM95.6318 136L95.6398 130.528C95.6398 129.867 95.4691 129.349 95.1278 128.976C94.7864 128.597 94.3331 128.408 93.7678 128.408C93.2078 128.408 92.7544 128.6 92.4078 128.984C92.0611 129.368 91.8878 129.877 91.8878 130.512L91.1358 130.064C91.1358 129.504 91.2691 129.003 91.5358 128.56C91.8024 128.117 92.1651 127.771 92.6238 127.52C93.0824 127.264 93.6024 127.136 94.1838 127.136C94.7651 127.136 95.2718 127.259 95.7038 127.504C96.1358 127.749 96.4691 128.101 96.7038 128.56C96.9384 129.013 97.0558 129.555 97.0558 130.184L97.0478 136H95.6318ZM114.636 136L114.644 130.472C114.644 129.827 114.47 129.323 114.124 128.96C113.782 128.592 113.337 128.408 112.788 128.408C112.468 128.408 112.164 128.483 111.876 128.632C111.588 128.776 111.353 129.005 111.172 129.32C110.99 129.629 110.9 130.027 110.9 130.512L110.148 130.208C110.137 129.595 110.262 129.059 110.524 128.6C110.79 128.136 111.153 127.776 111.612 127.52C112.07 127.264 112.588 127.136 113.164 127.136C114.065 127.136 114.774 127.411 115.292 127.96C115.809 128.504 116.068 129.237 116.068 130.16L116.06 136H114.636ZM104.3 136V127.36H105.572V129.672H105.732V136H104.3ZM109.476 136L109.484 130.528C109.484 129.867 109.313 129.349 108.972 128.976C108.63 128.597 108.177 128.408 107.612 128.408C107.052 128.408 106.598 128.6 106.252 128.984C105.905 129.368 105.732 129.877 105.732 130.512L104.98 130.064C104.98 129.504 105.113 129.003 105.38 128.56C105.646 128.117 106.009 127.771 106.468 127.52C106.926 127.264 107.446 127.136 108.028 127.136C108.609 127.136 109.116 127.259 109.548 127.504C109.98 127.749 110.313 128.101 110.548 128.56C110.782 129.013 110.9 129.555 110.9 130.184L110.892 136H109.476ZM121.431 136.224C120.877 136.224 120.399 136.136 119.999 135.96C119.605 135.784 119.277 135.549 119.015 135.256C118.754 134.963 118.549 134.637 118.399 134.28C118.25 133.923 118.143 133.557 118.079 133.184C118.021 132.811 117.991 132.461 117.991 132.136V127.36H119.431V131.688C119.431 132.093 119.469 132.485 119.543 132.864C119.618 133.243 119.743 133.584 119.919 133.888C120.101 134.192 120.341 134.432 120.639 134.608C120.943 134.784 121.322 134.872 121.775 134.872C122.133 134.872 122.458 134.811 122.751 134.688C123.045 134.565 123.295 134.384 123.503 134.144C123.711 133.899 123.871 133.589 123.983 133.216C124.095 132.843 124.151 132.408 124.151 131.912L125.087 132.2C125.087 133.032 124.935 133.749 124.631 134.352C124.333 134.955 123.909 135.419 123.359 135.744C122.815 136.064 122.173 136.224 121.431 136.224ZM124.311 136V133.688H124.151V127.36H125.583V136H124.311ZM133.975 136V131.672C133.975 131.261 133.938 130.867 133.863 130.488C133.794 130.109 133.668 129.771 133.487 129.472C133.311 129.168 133.071 128.928 132.767 128.752C132.468 128.576 132.09 128.488 131.631 128.488C131.274 128.488 130.948 128.549 130.655 128.672C130.367 128.789 130.119 128.971 129.911 129.216C129.703 129.461 129.54 129.771 129.423 130.144C129.311 130.512 129.255 130.947 129.255 131.448L128.319 131.16C128.319 130.323 128.468 129.605 128.767 129.008C129.071 128.405 129.495 127.944 130.039 127.624C130.588 127.299 131.234 127.136 131.975 127.136C132.535 127.136 133.012 127.224 133.407 127.4C133.802 127.576 134.13 127.811 134.391 128.104C134.652 128.392 134.858 128.717 135.007 129.08C135.156 129.437 135.26 129.803 135.319 130.176C135.383 130.544 135.415 130.893 135.415 131.224V136H133.975ZM127.815 136V127.36H129.095V129.672H129.255V136H127.815ZM137.655 125.832V124.36H139.079V125.832H137.655ZM137.655 136V127.36H139.079V136H137.655ZM145.119 136.24C144.245 136.24 143.501 136.045 142.887 135.656C142.279 135.261 141.815 134.72 141.495 134.032C141.175 133.344 141.01 132.56 140.999 131.68C141.01 130.779 141.178 129.987 141.503 129.304C141.834 128.616 142.306 128.08 142.919 127.696C143.533 127.312 144.271 127.12 145.135 127.12C146.047 127.12 146.831 127.344 147.487 127.792C148.149 128.24 148.591 128.853 148.815 129.632L147.407 130.056C147.226 129.555 146.93 129.165 146.519 128.888C146.114 128.611 145.647 128.472 145.119 128.472C144.527 128.472 144.039 128.611 143.655 128.888C143.271 129.16 142.986 129.539 142.799 130.024C142.613 130.504 142.517 131.056 142.511 131.68C142.522 132.64 142.743 133.416 143.175 134.008C143.613 134.595 144.261 134.888 145.119 134.888C145.685 134.888 146.154 134.76 146.527 134.504C146.901 134.243 147.183 133.867 147.375 133.376L148.815 133.752C148.517 134.557 148.05 135.173 147.415 135.6C146.781 136.027 146.015 136.24 145.119 136.24ZM152.826 136.24C152.181 136.24 151.639 136.123 151.202 135.888C150.77 135.648 150.442 135.333 150.218 134.944C149.999 134.555 149.89 134.128 149.89 133.664C149.89 133.211 149.975 132.819 150.146 132.488C150.322 132.152 150.567 131.875 150.882 131.656C151.197 131.432 151.573 131.256 152.01 131.128C152.421 131.016 152.879 130.92 153.386 130.84C153.898 130.755 154.415 130.677 154.938 130.608C155.461 130.539 155.949 130.472 156.402 130.408L155.89 130.704C155.906 129.936 155.751 129.368 155.426 129C155.106 128.632 154.551 128.448 153.762 128.448C153.239 128.448 152.781 128.568 152.386 128.808C151.997 129.043 151.722 129.427 151.562 129.96L150.21 129.552C150.418 128.795 150.821 128.2 151.418 127.768C152.015 127.336 152.802 127.12 153.778 127.12C154.562 127.12 155.234 127.261 155.794 127.544C156.359 127.821 156.765 128.243 157.01 128.808C157.133 129.075 157.21 129.365 157.242 129.68C157.274 129.989 157.29 130.315 157.29 130.656V136H156.026V133.928L156.322 134.12C155.997 134.819 155.541 135.347 154.954 135.704C154.373 136.061 153.663 136.24 152.826 136.24ZM153.042 135.048C153.554 135.048 153.997 134.957 154.37 134.776C154.749 134.589 155.053 134.347 155.282 134.048C155.511 133.744 155.661 133.413 155.73 133.056C155.81 132.789 155.853 132.493 155.858 132.168C155.869 131.837 155.874 131.584 155.874 131.408L156.37 131.624C155.906 131.688 155.45 131.749 155.002 131.808C154.554 131.867 154.13 131.931 153.73 132C153.33 132.064 152.97 132.141 152.65 132.232C152.415 132.307 152.194 132.403 151.986 132.52C151.783 132.637 151.618 132.789 151.49 132.976C151.367 133.157 151.306 133.384 151.306 133.656C151.306 133.891 151.365 134.115 151.482 134.328C151.605 134.541 151.791 134.715 152.042 134.848C152.298 134.981 152.631 135.048 153.042 135.048ZM164.194 136C163.682 136.101 163.175 136.141 162.674 136.12C162.178 136.104 161.735 136.005 161.346 135.824C160.957 135.637 160.661 135.349 160.458 134.96C160.287 134.619 160.194 134.275 160.178 133.928C160.167 133.576 160.162 133.179 160.162 132.736V124.96H161.586V132.672C161.586 133.024 161.589 133.325 161.594 133.576C161.605 133.827 161.661 134.043 161.762 134.224C161.954 134.565 162.258 134.765 162.674 134.824C163.095 134.883 163.602 134.867 164.194 134.776V136ZM158.41 128.536V127.36H164.194V128.536H158.41ZM166.108 125.832V124.36H167.532V125.832H166.108ZM166.108 136V127.36H167.532V136H166.108ZM173.613 136.24C172.754 136.24 172.013 136.045 171.389 135.656C170.77 135.267 170.293 134.728 169.957 134.04C169.621 133.352 169.453 132.563 169.453 131.672C169.453 130.765 169.623 129.971 169.965 129.288C170.306 128.605 170.789 128.075 171.413 127.696C172.037 127.312 172.77 127.12 173.613 127.12C174.477 127.12 175.221 127.315 175.845 127.704C176.469 128.088 176.946 128.624 177.277 129.312C177.613 129.995 177.781 130.781 177.781 131.672C177.781 132.573 177.613 133.368 177.277 134.056C176.941 134.739 176.461 135.275 175.837 135.664C175.213 136.048 174.471 136.24 173.613 136.24ZM173.613 134.888C174.509 134.888 175.175 134.589 175.613 133.992C176.05 133.395 176.269 132.621 176.269 131.672C176.269 130.696 176.047 129.92 175.605 129.344C175.162 128.763 174.498 128.472 173.613 128.472C173.01 128.472 172.514 128.608 172.125 128.88C171.735 129.152 171.445 129.528 171.253 130.008C171.061 130.488 170.965 131.043 170.965 131.672C170.965 132.643 171.189 133.421 171.637 134.008C172.085 134.595 172.743 134.888 173.613 134.888ZM185.694 136V131.672C185.694 131.261 185.657 130.867 185.582 130.488C185.513 130.109 185.387 129.771 185.206 129.472C185.03 129.168 184.79 128.928 184.486 128.752C184.187 128.576 183.809 128.488 183.35 128.488C182.993 128.488 182.667 128.549 182.374 128.672C182.086 128.789 181.838 128.971 181.63 129.216C181.422 129.461 181.259 129.771 181.142 130.144C181.03 130.512 180.974 130.947 180.974 131.448L180.038 131.16C180.038 130.323 180.187 129.605 180.486 129.008C180.79 128.405 181.214 127.944 181.758 127.624C182.307 127.299 182.953 127.136 183.694 127.136C184.254 127.136 184.731 127.224 185.126 127.4C185.521 127.576 185.849 127.811 186.11 128.104C186.371 128.392 186.577 128.717 186.726 129.08C186.875 129.437 186.979 129.803 187.038 130.176C187.102 130.544 187.134 130.893 187.134 131.224V136H185.694ZM179.534 136V127.36H180.814V129.672H180.974V136H179.534ZM194.257 136L191.617 127.352L193.033 127.36L194.961 133.68L196.905 127.36H198.161L200.097 133.68L202.033 127.36H203.441L200.801 136H199.617L197.529 129.432L195.441 136H194.257ZM205.046 125.832V124.36H206.47V125.832H205.046ZM205.046 136V127.36H206.47V136H205.046ZM213.694 136C213.182 136.101 212.675 136.141 212.174 136.12C211.678 136.104 211.235 136.005 210.846 135.824C210.457 135.637 210.161 135.349 209.958 134.96C209.787 134.619 209.694 134.275 209.678 133.928C209.667 133.576 209.662 133.179 209.662 132.736V124.96H211.086V132.672C211.086 133.024 211.089 133.325 211.094 133.576C211.105 133.827 211.161 134.043 211.262 134.224C211.454 134.565 211.758 134.765 212.174 134.824C212.595 134.883 213.102 134.867 213.694 134.776V136ZM207.91 128.536V127.36H213.694V128.536H207.91ZM221.6 136V131.672C221.6 131.261 221.563 130.867 221.488 130.488C221.419 130.109 221.293 129.771 221.112 129.472C220.936 129.168 220.696 128.928 220.392 128.752C220.093 128.576 219.715 128.488 219.256 128.488C218.899 128.488 218.573 128.549 218.28 128.672C217.992 128.789 217.744 128.971 217.536 129.216C217.328 129.461 217.165 129.771 217.048 130.144C216.936 130.512 216.88 130.947 216.88 131.448L215.944 131.16C215.944 130.323 216.093 129.605 216.392 129.008C216.696 128.405 217.12 127.944 217.664 127.624C218.213 127.299 218.859 127.136 219.6 127.136C220.16 127.136 220.637 127.224 221.032 127.4C221.427 127.576 221.755 127.811 222.016 128.104C222.277 128.392 222.483 128.717 222.632 129.08C222.781 129.437 222.885 129.803 222.944 130.176C223.008 130.544 223.04 130.893 223.04 131.224V136H221.6ZM215.44 136V124.48H216.72V130.84H216.88V136H215.44ZM233.147 136C232.635 136.101 232.128 136.141 231.627 136.12C231.131 136.104 230.688 136.005 230.299 135.824C229.91 135.637 229.614 135.349 229.411 134.96C229.24 134.619 229.147 134.275 229.131 133.928C229.12 133.576 229.115 133.179 229.115 132.736V124.96H230.539V132.672C230.539 133.024 230.542 133.325 230.547 133.576C230.558 133.827 230.614 134.043 230.715 134.224C230.907 134.565 231.211 134.765 231.627 134.824C232.048 134.883 232.555 134.867 233.147 134.776V136ZM227.363 128.536V127.36H233.147V128.536H227.363ZM241.053 136V131.672C241.053 131.261 241.016 130.867 240.941 130.488C240.872 130.109 240.747 129.771 240.565 129.472C240.389 129.168 240.149 128.928 239.845 128.752C239.547 128.576 239.168 128.488 238.709 128.488C238.352 128.488 238.027 128.549 237.733 128.672C237.445 128.789 237.197 128.971 236.989 129.216C236.781 129.461 236.619 129.771 236.501 130.144C236.389 130.512 236.333 130.947 236.333 131.448L235.397 131.16C235.397 130.323 235.547 129.605 235.845 129.008C236.149 128.405 236.573 127.944 237.117 127.624C237.667 127.299 238.312 127.136 239.053 127.136C239.613 127.136 240.091 127.224 240.485 127.4C240.88 127.576 241.208 127.811 241.469 128.104C241.731 128.392 241.936 128.717 242.085 129.08C242.235 129.437 242.339 129.803 242.397 130.176C242.461 130.544 242.493 130.893 242.493 131.224V136H241.053ZM234.893 136V124.48H236.173V130.84H236.333V136H234.893ZM248.317 136.24C247.469 136.24 246.728 136.053 246.093 135.68C245.464 135.301 244.973 134.776 244.621 134.104C244.269 133.427 244.093 132.637 244.093 131.736C244.093 130.792 244.266 129.976 244.613 129.288C244.96 128.595 245.442 128.061 246.061 127.688C246.685 127.309 247.416 127.12 248.253 127.12C249.122 127.12 249.861 127.32 250.469 127.72C251.082 128.12 251.541 128.691 251.845 129.432C252.154 130.173 252.288 131.056 252.245 132.08H250.805V131.568C250.789 130.507 250.573 129.715 250.157 129.192C249.741 128.664 249.122 128.4 248.301 128.4C247.421 128.4 246.752 128.683 246.293 129.248C245.834 129.813 245.605 130.624 245.605 131.68C245.605 132.699 245.834 133.488 246.293 134.048C246.752 134.608 247.405 134.888 248.253 134.888C248.824 134.888 249.32 134.757 249.741 134.496C250.162 134.235 250.493 133.859 250.733 133.368L252.101 133.84C251.765 134.603 251.258 135.195 250.581 135.616C249.909 136.032 249.154 136.24 248.317 136.24ZM245.125 132.08V130.936H251.509V132.08H245.125ZM257.389 136V124.24H258.813V136H257.389ZM263.67 136.24C263.024 136.24 262.483 136.123 262.046 135.888C261.614 135.648 261.286 135.333 261.062 134.944C260.843 134.555 260.734 134.128 260.734 133.664C260.734 133.211 260.819 132.819 260.99 132.488C261.166 132.152 261.411 131.875 261.726 131.656C262.04 131.432 262.416 131.256 262.854 131.128C263.264 131.016 263.723 130.92 264.23 130.84C264.742 130.755 265.259 130.677 265.782 130.608C266.304 130.539 266.792 130.472 267.246 130.408L266.734 130.704C266.75 129.936 266.595 129.368 266.27 129C265.95 128.632 265.395 128.448 264.606 128.448C264.083 128.448 263.624 128.568 263.23 128.808C262.84 129.043 262.566 129.427 262.406 129.96L261.054 129.552C261.262 128.795 261.664 128.2 262.262 127.768C262.859 127.336 263.646 127.12 264.622 127.12C265.406 127.12 266.078 127.261 266.638 127.544C267.203 127.821 267.608 128.243 267.854 128.808C267.976 129.075 268.054 129.365 268.086 129.68C268.118 129.989 268.134 130.315 268.134 130.656V136H266.87V133.928L267.166 134.12C266.84 134.819 266.384 135.347 265.798 135.704C265.216 136.061 264.507 136.24 263.67 136.24ZM263.886 135.048C264.398 135.048 264.84 134.957 265.214 134.776C265.592 134.589 265.896 134.347 266.126 134.048C266.355 133.744 266.504 133.413 266.574 133.056C266.654 132.789 266.696 132.493 266.702 132.168C266.712 131.837 266.718 131.584 266.718 131.408L267.214 131.624C266.75 131.688 266.294 131.749 265.846 131.808C265.398 131.867 264.974 131.931 264.574 132C264.174 132.064 263.814 132.141 263.494 132.232C263.259 132.307 263.038 132.403 262.83 132.52C262.627 132.637 262.462 132.789 262.334 132.976C262.211 133.157 262.15 133.384 262.15 133.656C262.15 133.891 262.208 134.115 262.326 134.328C262.448 134.541 262.635 134.715 262.886 134.848C263.142 134.981 263.475 135.048 263.886 135.048ZM276.366 136V131.672C276.366 131.261 276.328 130.867 276.254 130.488C276.184 130.109 276.059 129.771 275.878 129.472C275.702 129.168 275.462 128.928 275.158 128.752C274.859 128.576 274.48 128.488 274.022 128.488C273.664 128.488 273.339 128.549 273.046 128.672C272.758 128.789 272.51 128.971 272.302 129.216C272.094 129.461 271.931 129.771 271.814 130.144C271.702 130.512 271.646 130.947 271.646 131.448L270.71 131.16C270.71 130.323 270.859 129.605 271.158 129.008C271.462 128.405 271.886 127.944 272.43 127.624C272.979 127.299 273.624 127.136 274.366 127.136C274.926 127.136 275.403 127.224 275.798 127.4C276.192 127.576 276.52 127.811 276.782 128.104C277.043 128.392 277.248 128.717 277.398 129.08C277.547 129.437 277.651 129.803 277.71 130.176C277.774 130.544 277.806 130.893 277.806 131.224V136H276.366ZM270.206 136V127.36H271.486V129.672H271.646V136H270.206ZM283.2 136.24C282.394 136.24 281.704 136.04 281.128 135.64C280.552 135.235 280.106 134.688 279.792 134C279.482 133.312 279.328 132.536 279.328 131.672C279.328 130.808 279.482 130.032 279.792 129.344C280.106 128.656 280.552 128.115 281.128 127.72C281.704 127.32 282.392 127.12 283.192 127.12C284.008 127.12 284.693 127.317 285.248 127.712C285.802 128.107 286.221 128.648 286.504 129.336C286.792 130.024 286.936 130.803 286.936 131.672C286.936 132.531 286.792 133.307 286.504 134C286.221 134.688 285.802 135.235 285.248 135.64C284.693 136.04 284.01 136.24 283.2 136.24ZM283.376 134.936C283.957 134.936 284.434 134.797 284.808 134.52C285.181 134.237 285.456 133.851 285.632 133.36C285.813 132.864 285.904 132.301 285.904 131.672C285.904 131.032 285.813 130.469 285.632 129.984C285.456 129.493 285.184 129.112 284.816 128.84C284.448 128.563 283.981 128.424 283.416 128.424C282.829 128.424 282.344 128.568 281.96 128.856C281.581 129.144 281.298 129.533 281.112 130.024C280.93 130.515 280.84 131.064 280.84 131.672C280.84 132.285 280.933 132.84 281.12 133.336C281.306 133.827 281.586 134.216 281.96 134.504C282.338 134.792 282.81 134.936 283.376 134.936ZM285.904 136V129.64H285.744V124.48H287.176V136H285.904ZM289.577 136V124.24H291.001V136H289.577ZM297.081 136.24C296.223 136.24 295.481 136.045 294.857 135.656C294.239 135.267 293.761 134.728 293.425 134.04C293.089 133.352 292.921 132.563 292.921 131.672C292.921 130.765 293.092 129.971 293.433 129.288C293.775 128.605 294.257 128.075 294.881 127.696C295.505 127.312 296.239 127.12 297.081 127.12C297.945 127.12 298.689 127.315 299.313 127.704C299.937 128.088 300.415 128.624 300.745 129.312C301.081 129.995 301.249 130.781 301.249 131.672C301.249 132.573 301.081 133.368 300.745 134.056C300.409 134.739 299.929 135.275 299.305 135.664C298.681 136.048 297.94 136.24 297.081 136.24ZM297.081 134.888C297.977 134.888 298.644 134.589 299.081 133.992C299.519 133.395 299.737 132.621 299.737 131.672C299.737 130.696 299.516 129.92 299.073 129.344C298.631 128.763 297.967 128.472 297.081 128.472C296.479 128.472 295.983 128.608 295.593 128.88C295.204 129.152 294.913 129.528 294.721 130.008C294.529 130.488 294.433 131.043 294.433 131.672C294.433 132.643 294.657 133.421 295.105 134.008C295.553 134.595 296.212 134.888 297.081 134.888ZM303.011 136V127.36H304.283V129.448L304.075 129.176C304.176 128.909 304.307 128.664 304.467 128.44C304.632 128.216 304.816 128.032 305.019 127.888C305.243 127.707 305.496 127.568 305.779 127.472C306.061 127.376 306.349 127.32 306.643 127.304C306.936 127.283 307.211 127.301 307.467 127.36V128.696C307.168 128.616 306.84 128.595 306.483 128.632C306.125 128.669 305.795 128.8 305.491 129.024C305.213 129.221 304.997 129.461 304.843 129.744C304.693 130.027 304.589 130.333 304.531 130.664C304.472 130.989 304.443 131.323 304.443 131.664V136H303.011ZM312.215 136.24C311.41 136.24 310.719 136.04 310.143 135.64C309.567 135.235 309.122 134.688 308.807 134C308.498 133.312 308.343 132.536 308.343 131.672C308.343 130.808 308.498 130.032 308.807 129.344C309.122 128.656 309.567 128.115 310.143 127.72C310.719 127.32 311.407 127.12 312.207 127.12C313.023 127.12 313.708 127.317 314.263 127.712C314.818 128.107 315.236 128.648 315.519 129.336C315.807 130.024 315.951 130.803 315.951 131.672C315.951 132.531 315.807 133.307 315.519 134C315.236 134.688 314.818 135.235 314.263 135.64C313.708 136.04 313.026 136.24 312.215 136.24ZM312.391 134.936C312.972 134.936 313.45 134.797 313.823 134.52C314.196 134.237 314.471 133.851 314.647 133.36C314.828 132.864 314.919 132.301 314.919 131.672C314.919 131.032 314.828 130.469 314.647 129.984C314.471 129.493 314.199 129.112 313.831 128.84C313.463 128.563 312.996 128.424 312.431 128.424C311.844 128.424 311.359 128.568 310.975 128.856C310.596 129.144 310.314 129.533 310.127 130.024C309.946 130.515 309.855 131.064 309.855 131.672C309.855 132.285 309.948 132.84 310.135 133.336C310.322 133.827 310.602 134.216 310.975 134.504C311.354 134.792 311.826 134.936 312.391 134.936ZM314.919 136V129.64H314.759V124.48H316.191V136H314.919ZM318.689 136V134.432H320.257V136H318.689Z" fill="black"/>
<path d="M71.96 162.712V161.2H78.68V162.712H71.96ZM86.7318 167V157.288H83.0038V155.48H92.3878V157.288H88.6598V167H86.7318ZM96.2016 167.24C95.3376 167.24 94.583 167.045 93.9376 166.656C93.2923 166.267 92.791 165.731 92.4336 165.048C92.0816 164.36 91.9056 163.571 91.9056 162.68C91.9056 161.773 92.087 160.979 92.4496 160.296C92.8123 159.613 93.3163 159.08 93.9616 158.696C94.607 158.312 95.3536 158.12 96.2016 158.12C97.071 158.12 97.8283 158.315 98.4736 158.704C99.119 159.093 99.6203 159.632 99.9776 160.32C100.335 161.003 100.514 161.789 100.514 162.68C100.514 163.576 100.332 164.368 99.9696 165.056C99.6123 165.739 99.111 166.275 98.4656 166.664C97.8203 167.048 97.0656 167.24 96.2016 167.24ZM96.2016 165.432C96.9696 165.432 97.5403 165.176 97.9136 164.664C98.287 164.152 98.4736 163.491 98.4736 162.68C98.4736 161.843 98.2843 161.176 97.9056 160.68C97.527 160.179 96.959 159.928 96.2016 159.928C95.6843 159.928 95.2576 160.045 94.9216 160.28C94.591 160.509 94.3456 160.832 94.1856 161.248C94.0256 161.659 93.9456 162.136 93.9456 162.68C93.9456 163.517 94.135 164.187 94.5136 164.688C94.8976 165.184 95.4603 165.432 96.2016 165.432ZM102.436 167V155.24H104.364V167H102.436ZM110.001 167.248C109.361 167.248 108.833 167.141 108.417 166.928C108.001 166.715 107.67 166.443 107.425 166.112C107.179 165.781 106.998 165.429 106.881 165.056C106.763 164.683 106.686 164.331 106.649 164C106.617 163.664 106.601 163.392 106.601 163.184V158.36H108.553V162.52C108.553 162.787 108.571 163.088 108.609 163.424C108.646 163.755 108.731 164.075 108.865 164.384C109.003 164.688 109.206 164.939 109.473 165.136C109.745 165.333 110.11 165.432 110.569 165.432C110.814 165.432 111.057 165.392 111.297 165.312C111.537 165.232 111.753 165.096 111.945 164.904C112.142 164.707 112.299 164.437 112.417 164.096C112.534 163.755 112.593 163.323 112.593 162.8L113.737 163.288C113.737 164.024 113.593 164.691 113.305 165.288C113.022 165.885 112.603 166.363 112.049 166.72C111.494 167.072 110.811 167.248 110.001 167.248ZM112.825 167V164.32H112.593V158.36H114.529V167H112.825ZM118.616 167L115.976 158.344L117.864 158.36L119.552 163.904L121.264 158.36H122.888L124.592 163.904L126.288 158.36H128.176L125.536 167H124.032L122.072 161.056L120.12 167H118.616ZM131.552 167.24C130.928 167.24 130.4 167.123 129.968 166.888C129.536 166.648 129.208 166.331 128.984 165.936C128.765 165.541 128.656 165.107 128.656 164.632C128.656 164.216 128.725 163.843 128.864 163.512C129.002 163.176 129.216 162.888 129.504 162.648C129.792 162.403 130.165 162.203 130.624 162.048C130.97 161.936 131.376 161.835 131.84 161.744C132.309 161.653 132.816 161.571 133.36 161.496C133.909 161.416 134.482 161.331 135.08 161.24L134.392 161.632C134.397 161.035 134.264 160.595 133.992 160.312C133.72 160.029 133.261 159.888 132.616 159.888C132.226 159.888 131.85 159.979 131.488 160.16C131.125 160.341 130.872 160.653 130.728 161.096L128.968 160.544C129.181 159.813 129.586 159.227 130.184 158.784C130.786 158.341 131.597 158.12 132.616 158.12C133.384 158.12 134.058 158.245 134.64 158.496C135.226 158.747 135.661 159.157 135.944 159.728C136.098 160.032 136.192 160.344 136.224 160.664C136.256 160.979 136.272 161.323 136.272 161.696V167H134.584V165.128L134.864 165.432C134.474 166.056 134.018 166.515 133.496 166.808C132.978 167.096 132.33 167.24 131.552 167.24ZM131.936 165.704C132.373 165.704 132.746 165.627 133.056 165.472C133.365 165.317 133.61 165.128 133.792 164.904C133.978 164.68 134.104 164.469 134.168 164.272C134.269 164.027 134.325 163.747 134.336 163.432C134.352 163.112 134.36 162.853 134.36 162.656L134.952 162.832C134.37 162.923 133.872 163.003 133.456 163.072C133.04 163.141 132.682 163.208 132.384 163.272C132.085 163.331 131.821 163.397 131.592 163.472C131.368 163.552 131.178 163.645 131.024 163.752C130.869 163.859 130.749 163.981 130.664 164.12C130.584 164.259 130.544 164.421 130.544 164.608C130.544 164.821 130.597 165.011 130.704 165.176C130.81 165.336 130.965 165.464 131.168 165.56C131.376 165.656 131.632 165.704 131.936 165.704ZM138.194 169.04L138.306 168.208C138.552 168.229 138.746 168.187 138.89 168.08C139.034 167.979 139.13 167.832 139.178 167.64C139.232 167.453 139.245 167.24 139.218 167H138.194V164.944H140.17V167.08C140.17 167.779 140.005 168.307 139.674 168.664C139.344 169.021 138.85 169.147 138.194 169.04ZM146.577 167V155.48H148.505V165.192H153.593V167H146.577ZM157.364 167.24C156.74 167.24 156.212 167.123 155.78 166.888C155.348 166.648 155.02 166.331 154.796 165.936C154.577 165.541 154.468 165.107 154.468 164.632C154.468 164.216 154.537 163.843 154.676 163.512C154.815 163.176 155.028 162.888 155.316 162.648C155.604 162.403 155.977 162.203 156.436 162.048C156.783 161.936 157.188 161.835 157.652 161.744C158.121 161.653 158.628 161.571 159.172 161.496C159.721 161.416 160.295 161.331 160.892 161.24L160.204 161.632C160.209 161.035 160.076 160.595 159.804 160.312C159.532 160.029 159.073 159.888 158.428 159.888C158.039 159.888 157.663 159.979 157.3 160.16C156.937 160.341 156.684 160.653 156.54 161.096L154.78 160.544C154.993 159.813 155.399 159.227 155.996 158.784C156.599 158.341 157.409 158.12 158.428 158.12C159.196 158.12 159.871 158.245 160.452 158.496C161.039 158.747 161.473 159.157 161.756 159.728C161.911 160.032 162.004 160.344 162.036 160.664C162.068 160.979 162.084 161.323 162.084 161.696V167H160.396V165.128L160.676 165.432C160.287 166.056 159.831 166.515 159.308 166.808C158.791 167.096 158.143 167.24 157.364 167.24ZM157.748 165.704C158.185 165.704 158.559 165.627 158.868 165.472C159.177 165.317 159.423 165.128 159.604 164.904C159.791 164.68 159.916 164.469 159.98 164.272C160.081 164.027 160.137 163.747 160.148 163.432C160.164 163.112 160.172 162.853 160.172 162.656L160.764 162.832C160.183 162.923 159.684 163.003 159.268 163.072C158.852 163.141 158.495 163.208 158.196 163.272C157.897 163.331 157.633 163.397 157.404 163.472C157.18 163.552 156.991 163.645 156.836 163.752C156.681 163.859 156.561 163.981 156.476 164.12C156.396 164.259 156.356 164.421 156.356 164.608C156.356 164.821 156.409 165.011 156.516 165.176C156.623 165.336 156.777 165.464 156.98 165.56C157.188 165.656 157.444 165.704 157.748 165.704ZM167.799 171.08C167.319 171.08 166.858 171.005 166.415 170.856C165.978 170.707 165.583 170.491 165.231 170.208C164.879 169.931 164.591 169.595 164.367 169.2L166.143 168.32C166.308 168.635 166.54 168.867 166.839 169.016C167.143 169.171 167.466 169.248 167.807 169.248C168.207 169.248 168.564 169.176 168.879 169.032C169.194 168.893 169.436 168.685 169.607 168.408C169.783 168.136 169.866 167.795 169.855 167.384V164.928H170.095V158.36H171.783V167.416C171.783 167.635 171.772 167.843 171.751 168.04C171.735 168.243 171.706 168.44 171.663 168.632C171.535 169.192 171.29 169.651 170.927 170.008C170.564 170.371 170.114 170.64 169.575 170.816C169.042 170.992 168.45 171.08 167.799 171.08ZM167.631 167.24C166.836 167.24 166.143 167.04 165.551 166.64C164.959 166.24 164.5 165.696 164.175 165.008C163.85 164.32 163.687 163.544 163.687 162.68C163.687 161.805 163.85 161.027 164.175 160.344C164.506 159.656 164.972 159.115 165.575 158.72C166.178 158.32 166.887 158.12 167.703 158.12C168.524 158.12 169.212 158.32 169.767 158.72C170.327 159.115 170.751 159.656 171.039 160.344C171.327 161.032 171.471 161.811 171.471 162.68C171.471 163.539 171.327 164.315 171.039 165.008C170.751 165.696 170.322 166.24 169.751 166.64C169.18 167.04 168.474 167.24 167.631 167.24ZM167.927 165.512C168.444 165.512 168.86 165.395 169.175 165.16C169.495 164.92 169.727 164.587 169.871 164.16C170.02 163.733 170.095 163.24 170.095 162.68C170.095 162.115 170.02 161.621 169.871 161.2C169.727 160.773 169.5 160.443 169.191 160.208C168.882 159.968 168.482 159.848 167.991 159.848C167.474 159.848 167.047 159.976 166.711 160.232C166.375 160.483 166.127 160.824 165.967 161.256C165.807 161.683 165.727 162.157 165.727 162.68C165.727 163.208 165.804 163.688 165.959 164.12C166.119 164.547 166.362 164.885 166.687 165.136C167.012 165.387 167.426 165.512 167.927 165.512ZM177.842 167.24C176.978 167.24 176.224 167.045 175.578 166.656C174.933 166.267 174.432 165.731 174.074 165.048C173.722 164.36 173.546 163.571 173.546 162.68C173.546 161.773 173.728 160.979 174.09 160.296C174.453 159.613 174.957 159.08 175.602 158.696C176.248 158.312 176.994 158.12 177.842 158.12C178.712 158.12 179.469 158.315 180.114 158.704C180.76 159.093 181.261 159.632 181.618 160.32C181.976 161.003 182.154 161.789 182.154 162.68C182.154 163.576 181.973 164.368 181.61 165.056C181.253 165.739 180.752 166.275 180.106 166.664C179.461 167.048 178.706 167.24 177.842 167.24ZM177.842 165.432C178.61 165.432 179.181 165.176 179.554 164.664C179.928 164.152 180.114 163.491 180.114 162.68C180.114 161.843 179.925 161.176 179.546 160.68C179.168 160.179 178.6 159.928 177.842 159.928C177.325 159.928 176.898 160.045 176.562 160.28C176.232 160.509 175.986 160.832 175.826 161.248C175.666 161.659 175.586 162.136 175.586 162.68C175.586 163.517 175.776 164.187 176.154 164.688C176.538 165.184 177.101 165.432 177.842 165.432ZM187.05 167.24C185.983 167.24 185.116 167 184.45 166.52C183.783 166.04 183.378 165.365 183.234 164.496L185.202 164.192C185.303 164.619 185.527 164.955 185.874 165.2C186.22 165.445 186.658 165.568 187.186 165.568C187.65 165.568 188.007 165.477 188.258 165.296C188.514 165.109 188.642 164.856 188.642 164.536C188.642 164.339 188.594 164.181 188.498 164.064C188.407 163.941 188.204 163.824 187.89 163.712C187.575 163.6 187.092 163.459 186.442 163.288C185.716 163.096 185.14 162.891 184.714 162.672C184.287 162.448 183.98 162.184 183.794 161.88C183.607 161.576 183.514 161.208 183.514 160.776C183.514 160.237 183.655 159.768 183.938 159.368C184.22 158.968 184.615 158.661 185.122 158.448C185.628 158.229 186.226 158.12 186.914 158.12C187.586 158.12 188.18 158.224 188.698 158.432C189.22 158.64 189.642 158.936 189.962 159.32C190.282 159.704 190.479 160.155 190.554 160.672L188.586 161.024C188.538 160.656 188.37 160.365 188.082 160.152C187.799 159.939 187.42 159.819 186.946 159.792C186.492 159.765 186.127 159.835 185.85 160C185.572 160.16 185.434 160.387 185.434 160.68C185.434 160.845 185.49 160.987 185.602 161.104C185.714 161.221 185.938 161.339 186.274 161.456C186.615 161.573 187.122 161.717 187.794 161.888C188.482 162.064 189.031 162.267 189.442 162.496C189.858 162.72 190.156 162.989 190.338 163.304C190.524 163.619 190.618 164 190.618 164.448C190.618 165.317 190.3 166 189.666 166.496C189.036 166.992 188.164 167.24 187.05 167.24Z" fill="black"/>
<g filter="url(#filter0_d_1098_326)">
<circle cx="29" cy="90" r="25" fill="#F9F9F9"/>
</g>
<path d="M29.7271 81.6868C29.8173 81.5913 29.8878 81.479 29.9347 81.3563C29.9815 81.2335 30.0037 81.1028 29.9999 80.9715C29.9962 80.8402 29.9667 80.7109 29.913 80.591C29.8593 80.4711 29.7826 80.363 29.6871 80.2728C29.5916 80.1825 29.4793 80.112 29.3566 80.0652C29.2339 80.0184 29.1031 79.9962 28.9718 79.9999C28.8405 80.0036 28.7112 80.0332 28.5913 80.0868C28.4715 80.1405 28.3633 80.2173 28.2731 80.3128L19.7731 89.3128C19.5976 89.4984 19.4998 89.7442 19.4998 89.9998C19.4998 90.2553 19.5976 90.5011 19.7731 90.6868L28.2731 99.6878C28.3627 99.7853 28.4708 99.8641 28.5912 99.9195C28.7115 99.975 28.8416 100.006 28.974 100.011C29.1064 100.015 29.2384 99.9937 29.3624 99.9469C29.4863 99.9002 29.5998 99.8293 29.6961 99.7383C29.7924 99.6474 29.8697 99.5382 29.9235 99.4171C29.9772 99.296 30.0064 99.1655 30.0093 99.033C30.0122 98.9006 29.9887 98.7689 29.9403 98.6456C29.8918 98.5223 29.8194 98.4098 29.7271 98.3148L21.8751 89.9998L29.7271 81.6868Z" fill="#2E2E2E"/>
<defs>
<filter id="filter0_d_1098_326" x="0" y="65" width="58" height="58" filterUnits="userSpaceOnUse" color-interpolation-filters="sRGB">
<feFlood flood-opacity="0" result="BackgroundImageFix"/>
<feColorMatrix in="SourceAlpha" type="matrix" values="0 0 0 0 0 0 0 0 0 0 0 0 0 0 0 0 0 0 127 0" result="hardAlpha"/>
<feOffset dy="4"/>
<feGaussianBlur stdDeviation="2"/>
<feComposite in2="hardAlpha" operator="out"/>
<feColorMatrix type="matrix" values="0 0 0 0 0 0 0 0 0 0 0 0 0 0 0 0 0 0 0.25 0"/>
<feBlend mode="normal" in2="BackgroundImageFix" result="effect1_dropShadow_1098_326"/>
<feBlend mode="normal" in="SourceGraphic" in2="effect1_dropShadow_1098_326" result="shape"/>
</filter>
</defs>
</svg>
